<?xml version="1.0" encoding="UTF-8"?>
<svg xmlns="http://www.w3.org/2000/svg" viewBox="0 0 320 129"><g fill="#000" fill-rule="evenodd"><path d="M42.737 105.895L96.99 40.18l9.924 8.128-54.254 65.714z"/><path d="M19.042 86.492l8.16-9.884 33.604 27.527-8.16 9.884z"/><path d="M.847 128.18h318.4V19.195H.847V128.18zM307.2 117.562H12.918V29.837H307.2v87.727z" fill-rule="nonzero"/><path d="M115.576 49.383h2.8v53.648h-2.8z"/><g><path d="M129.6 35.063h4.965v9.82l9.153-9.82h6l-9.177 9.515 9.6 12.938h-5.953l-6.988-9.563-2.612 2.695v6.868h-4.964V35.063zM153.106 35.063h4.565l10.564 13.828V35.063h4.894v22.453h-4.211L158 43.242v14.274h-4.894V35.063z"/><path d="M177.553 46.336v-.07c0-6.375 5.059-11.602 12.023-11.602 6.965 0 11.953 5.156 11.953 11.555v.07c0 6.375-5.058 11.602-12 11.602-6.988 0-11.976-5.157-11.976-11.555zm18.776 0v-.07c0-3.844-2.823-7.055-6.823-7.055s-6.777 3.14-6.777 6.984v.07c0 3.844 2.847 7.055 6.824 7.055 3.976 0 6.776-3.117 6.776-6.984z" fill-rule="nonzero"/><path d="M202.918 35.063h5.317l4.66 15.21 5.058-15.28h4.259l5.059 15.28 4.682-15.21h5.176l-7.694 22.617h-4.306l-5.082-14.696-5.082 14.696h-4.306z"/><g><path d="M135.93 75.914l-8.66-13.594h5.789l5.388 9.024 5.482-9.024h5.647l-8.658 13.5v8.953h-4.965v-8.859z"/><path d="M149.741 73.594v-.07c0-6.376 5.059-11.626 12-11.626 6.965 0 11.953 5.157 11.953 11.555v.07c0 6.375-5.059 11.602-12.023 11.602-6.965 0-11.93-5.133-11.93-11.531zm18.777 0v-.07c0-3.844-2.824-7.055-6.824-7.055s-6.753 3.14-6.753 6.984v.07c0 3.844 2.824 7.055 6.824 7.055s6.753-3.117 6.753-6.984z" fill-rule="nonzero"/><path d="M177.765 75.14V62.32h4.964v12.703c0 3.657 1.836 5.555 4.871 5.555s4.87-1.828 4.87-5.39V62.32h4.965V75c0 6.797-3.835 10.148-9.882 10.148s-9.788-3.398-9.788-10.007z"/><path d="M202.47 62.32h10.306c2.871 0 5.083.797 6.565 2.274 1.247 1.242 1.93 3.023 1.93 5.133v.07c0 3.633-1.953 5.906-4.824 6.96l5.506 8.016h-5.788l-4.824-7.195h-3.906v7.195h-4.964V62.32zm9.977 10.899c2.424 0 3.812-1.29 3.812-3.164v-.07c0-2.11-1.483-3.212-3.906-3.212h-4.918v6.446h5.012z" fill-rule="nonzero"/></g><g><path d="M129.6 89.578h17.012v4.406h-12.07v4.547h10.634v4.406h-10.635v4.711h12.235v4.407h-17.152V89.578zM151.176 89.578h4.965v17.977h11.247v4.5H151.2V89.578zM171.106 89.578h17.012v4.406h-12.07v4.547h10.634v4.406h-10.635v4.711h12.235v4.407h-17.176V89.578zM191.67 100.875v-.07c0-6.375 4.824-11.625 11.765-11.625 4.26 0 6.8 1.406 8.894 3.468l-3.153 3.633c-1.74-1.57-3.505-2.531-5.764-2.531-3.812 0-6.541 3.14-6.541 6.984v.07c0 3.844 2.682 7.055 6.54 7.055 2.565 0 4.165-1.03 5.93-2.625l3.153 3.164c-2.33 2.461-4.894 4.008-9.247 4.008-6.635 0-11.576-5.086-11.576-11.531zM221.694 94.125h-6.87v-4.547h18.682v4.547h-6.87v17.906h-4.965V94.125zM237.294 89.578h17.012v4.406h-12.07v4.547h10.635v4.406h-10.636v4.711h12.236v4.407h-17.177V89.578z"/><path d="M258.87 89.578h8.8c7.083 0 11.977 4.852 11.977 11.156v.07c0 6.329-4.894 11.227-11.976 11.227h-8.8V89.578zm4.965 4.453v13.547h3.836c4.047 0 6.8-2.719 6.8-6.703v-.07c0-3.985-2.73-6.774-6.8-6.774h-3.836z" fill-rule="nonzero"/><path d="M282.188 108.75l2.941-3.492c2.024 1.664 4.165 2.719 6.73 2.719 2.023 0 3.247-.797 3.247-2.11v-.07c0-1.242-.777-1.899-4.541-2.86-4.541-1.148-7.483-2.414-7.483-6.867V96c0-4.078 3.294-6.773 7.883-6.773 3.294 0 6.094 1.03 8.376 2.859l-2.565 3.727c-2-1.383-3.952-2.204-5.858-2.204-1.906 0-2.894.868-2.894 1.946v.07c0 1.477.964 1.945 4.87 2.953 4.565 1.195 7.153 2.836 7.153 6.75v.07c0 4.454-3.412 6.961-8.282 6.961-3.412 0-6.87-1.195-9.577-3.609z"/></g></g><g><path d="M.824 13.945l2-2.39c1.388 1.148 2.823 1.851 4.588 1.851 1.388 0 2.212-.539 2.212-1.453v-.023c0-.844-.518-1.29-3.106-1.946-3.106-.796-5.106-1.64-5.106-4.687V5.25C1.412 2.46 3.647.633 6.8.633c2.235 0 4.141.703 5.718 1.945L10.753 5.11c-1.341-.937-2.659-1.5-3.977-1.5-1.294 0-1.976.586-1.976 1.336v.047c0 1.008.659 1.336 3.318 2.016 3.13.82 4.87 1.922 4.87 4.594v.046c0 3.047-2.33 4.758-5.647 4.758-2.306-.023-4.659-.82-6.517-2.46z"/><path d="M15.953.844h6.282c3.67 0 5.883 2.156 5.883 5.297v.046c0 3.54-2.777 5.391-6.212 5.391H19.34v4.594h-3.388V.844zm6.07 7.734c1.695 0 2.683-1.008 2.683-2.32V6.21c0-1.5-1.059-2.32-2.753-2.32H19.34v4.687h2.683z" fill-rule="nonzero"/><path d="M30.635.844h11.6v3H34V6.96h7.247v3H34v3.21h8.353v3H30.635zM44.682 8.555v-.047c0-4.36 3.294-7.922 8.024-7.922 2.894 0 4.635.96 6.07 2.367l-2.164 2.485c-1.177-1.079-2.4-1.735-3.93-1.735-2.588 0-4.47 2.156-4.47 4.781v.047c0 2.625 1.812 4.805 4.47 4.805 1.765 0 2.824-.703 4.047-1.805l2.165 2.156c-1.576 1.688-3.341 2.743-6.306 2.743-4.54 0-7.906-3.47-7.906-7.875zM65.176 3.96h-4.682V.845h12.753V3.96h-4.682v12.21h-3.389z"/><path d="M75.835.844h7.036c1.953 0 3.482.539 4.494 1.547.847.843 1.317 2.062 1.317 3.492v.07c0 2.484-1.34 4.031-3.294 4.758l3.765 5.46h-3.977l-3.294-4.898h-2.658v4.899h-3.389V.844zm6.8 7.453c1.647 0 2.589-.867 2.589-2.156v-.07c0-1.454-1.012-2.18-2.66-2.18H79.2v4.406h3.435z" fill-rule="nonzero"/><path d="M91.482 9.61V.843h3.389v8.672c0 2.484 1.247 3.796 3.317 3.796 2.07 0 3.318-1.242 3.318-3.68V.845h3.388v8.648c0 4.64-2.612 6.914-6.753 6.914s-6.659-2.297-6.659-6.797zM108.353.844H112l4.047 6.468 4.047-6.468h3.647v15.328h-3.365V6.164l-4.329 6.54h-.094l-4.282-6.47v9.938h-3.318V.844zM134.024.844h3.129l7.2 9.422V.844h3.341v15.328h-2.87l-7.46-9.75v9.75h-3.34zM151.388.844h11.6v3h-8.235V6.96H162v3h-7.247v3.21h8.353v3h-11.718zM169.694 3.96h-4.682V.845h12.753V3.96h-4.683v12.21h-3.388V3.962zM179.176.844h3.624l3.176 10.383 3.46-10.43h2.893l3.46 10.43L198.964.844h3.53l-5.248 15.422h-2.941l-3.459-10.032-3.482 10.032h-2.941z"/><path d="M204.33 8.555v-.047c0-4.36 3.458-7.922 8.188-7.922 4.753 0 8.14 3.516 8.14 7.875v.047c0 4.36-3.458 7.922-8.187 7.922-4.73 0-8.142-3.516-8.142-7.875zm12.823 0v-.047c0-2.625-1.93-4.805-4.659-4.805-2.73 0-4.612 2.156-4.612 4.781v.047c0 2.625 1.93 4.805 4.66 4.805 2.705-.024 4.61-2.156 4.61-4.781zM223.694.844h7.035c1.953 0 3.483.539 4.495 1.547.847.843 1.317 2.062 1.317 3.492v.07c0 2.484-1.341 4.031-3.294 4.758l3.765 5.46h-3.953l-3.294-4.898h-2.66v4.899h-3.387V.844h-.024zm6.824 7.453c1.647 0 2.588-.867 2.588-2.156v-.07c0-1.454-1.012-2.18-2.659-2.18h-3.365v4.406h3.436z" fill-rule="nonzero"/><path d="M239.6.844h3.388v6.703l6.236-6.703h4.094l-6.26 6.492 6.542 8.812h-4.07l-4.777-6.515-1.788 1.828v4.687h-3.389V.844zM254.588 13.945l2-2.39c1.388 1.148 2.847 1.851 4.588 1.851 1.389 0 2.212-.539 2.212-1.453v-.023c0-.844-.517-1.29-3.106-1.946-3.106-.796-5.106-1.64-5.106-4.687V5.25c0-2.79 2.236-4.617 5.389-4.617 2.235 0 4.14.703 5.717 1.945l-1.764 2.531c-1.365-.937-2.706-1.5-4-1.5s-1.977.586-1.977 1.336v.047c0 1.008.659 1.336 3.318 2.016 3.13.82 4.87 1.922 4.87 4.594v.046c0 3.047-2.329 4.758-5.647 4.758-2.306-.023-4.658-.82-6.494-2.46zM269.506.844h3.741V.96l-2.4 6.867h-1.741z"/></g></g></svg>