<?xml version="1.0" encoding="UTF-8"?>
<svg viewBox="0 0 132 33" version="1.1" xmlns="http://www.w3.org/2000/svg" xmlns:xlink="http://www.w3.org/1999/xlink">        <title>Artboard</title>    <desc>Created with Sketch.</desc>    <defs>        <polygon id="path-1" points="0.0002 0.4994 114.3 0.4994 114.3 21.9994 0.0002 21.9994"/>        <polygon id="path-3" points="0 28.6 114.3 28.6 114.3 0 0 0"/>    </defs>    <g id="Artboard" stroke="none" stroke-width="1" fill="none" fill-rule="evenodd">        <g id="Group-34" transform="translate(9.000000, 2.000000)">            <path d="M50.4999,14.1999 C48.4999,14.1999 47.1999,15.8999 47.1999,17.7999 C47.1999,19.6999 48.4999,21.3999 50.5999,21.3999 C52.5999,21.3999 53.8999,19.6999 53.8999,17.7999 C53.8999,15.8999 52.5999,14.1999 50.4999,14.1999" id="Fill-1" fill="#5FAFB6"/>            <g id="Group-5" transform="translate(0.000000, 6.600000)">                <mask id="mask-2" fill="white">                    <use xlink:href="#path-1"/>                </mask>                <g id="Clip-4"/>                <path d="M110.8002,14.1004 C110.8002,17.4994 108.0002,19.6004 103.6992,19.6004 C100.4002,19.6004 97.5002,18.7004 95.4002,16.9004 L98.3002,13.4994 C100.1002,14.7994 102.1002,15.4004 103.9002,15.4004 C104.9002,15.4004 105.3002,15.2004 105.3002,14.7004 C105.3002,14.2004 104.8002,13.9994 103.1002,13.6004 C99.5002,12.9004 96.3002,11.7994 96.3002,8.4004 C96.3002,5.3004 98.6992,2.9994 103.1002,2.9994 C106.1992,2.9994 108.5002,3.7004 110.4002,5.2004 L107.8002,8.7994 C106.3002,7.7004 104.5002,7.2004 103.0002,7.2004 C102.1992,7.2004 101.8002,7.4994 101.8002,7.9004 C101.8002,8.2994 102.1992,8.6004 103.9002,8.9004 C108.0002,9.6004 110.8002,10.7994 110.8002,14.1004 Z M94.1002,11.9004 C94.1002,17.4004 90.9002,19.6004 86.1002,19.6004 C81.3002,19.6004 78.1992,17.4004 78.1992,12.1004 L78.1992,3.2004 L83.6992,3.2004 L83.6992,11.9994 C83.6992,13.9994 84.6992,14.9004 86.1992,14.9004 C87.6002,14.9004 88.6992,14.1004 88.6992,12.2004 L88.6992,3.2004 L94.1992,3.2004 L94.1002,11.9004 Z M69.1992,19.6004 C64.6992,19.6004 60.9002,16.2004 60.9002,11.2004 C60.9002,6.4004 64.6992,2.8004 69.5002,2.8004 C73.0002,2.8004 75.4002,4.4994 76.8002,6.9994 L72.4002,9.6004 C71.8002,8.4994 71.0002,7.6004 69.5002,7.6004 C67.6992,7.6004 66.5002,9.2004 66.5002,11.1004 C66.5002,13.2004 67.6992,14.7004 69.5002,14.7004 C71.0002,14.7004 71.9002,13.9004 72.5002,12.7004 L76.9002,15.2004 C75.5002,17.7004 73.1992,19.6004 69.1992,19.6004 Z M59.3002,11.2004 C59.3002,15.9004 55.5002,19.6004 50.5002,19.6004 C45.5002,19.6004 41.7002,15.9004 41.7002,11.2004 C41.7002,6.4994 45.5002,2.8004 50.5002,2.8004 C55.5002,2.8004 59.3002,6.4994 59.3002,11.2004 Z M40.8002,7.8004 L32.7002,7.8004 L32.7002,9.7994 L40.2002,9.7994 L40.2002,13.9994 L32.7002,13.9994 L32.7002,19.2994 L27.3002,19.2994 L27.3002,3.2004 L40.8002,3.2004 L40.8002,7.8004 Z M23.3002,19.2994 L21.8002,19.2994 L11.4002,6.1004 L11.4002,19.2994 L9.6002,19.2994 L9.6002,3.2004 L11.3002,3.2004 L21.4002,16.1004 L21.4002,3.2004 L23.2002,3.2004 L23.3002,19.2994 Z M4.0002,19.2994 L5.8002,19.2994 L5.8002,3.1994 L4.0002,3.1994 L4.0002,19.2994 Z M0.0002,21.9994 L114.3002,21.9994 L114.3002,0.4994 L0.0002,0.4994 L0.0002,21.9994 Z" id="Fill-3" fill="#5FAFB6" mask="url(#mask-2)"/>            </g>            <path d="M4.3002,3.9001 L4.8002,3.3001 C5.2002,3.7001 5.7002,3.9001 6.2002,3.9001 C6.7002,3.9001 7.0002,3.7001 7.0002,3.3001 C7.0002,3.0001 6.8002,2.8001 6.0002,2.6001 C5.0002,2.4001 4.5002,2.1001 4.5002,1.3001 C4.5002,0.5001 5.1002,0.0001 6.0002,0.0001 C6.7002,0.0001 7.2002,0.2001 7.6002,0.6001 L7.2002,1.2001 C6.8002,0.9001 6.4002,0.7001 6.0002,0.7001 C5.5002,0.7001 5.3002,0.9001 5.3002,1.2001 C5.3002,1.5001 5.5002,1.7001 6.4002,1.9001 C7.4002,2.1001 7.9002,2.5001 7.9002,3.2001 C7.9002,4.0001 7.2002,4.5001 6.3002,4.5001 C5.5002,4.6001 4.8002,4.4001 4.3002,3.9001" id="Fill-6" fill="#5FAFB6"/>            <path d="M10.3998,2.4001 C10.9998,2.4001 11.3998,2.1001 11.3998,1.6001 C11.3998,1.1001 10.9998,0.8001 10.3998,0.8001 L9.4998,0.8001 L9.4998,2.4001 L10.3998,2.4001 Z M8.6998,0.1001 L10.4998,0.1001 C11.5998,0.1001 12.1998,0.7001 12.1998,1.6001 C12.1998,2.6001 11.3998,3.1001 10.3998,3.1001 L9.4998,3.1001 L9.4998,4.6001 L8.6998,4.6001 L8.6998,0.1001 Z" id="Fill-8" fill="#5FAFB6"/>            <polygon id="Fill-10" fill="#5FAFB6" points="12.9999 0.0998 16.2999 0.0998 16.2999 0.7998 13.6999 0.7998 13.6999 1.9998 16.0999 1.9998 16.0999 2.6998 13.7999 2.6998 13.7999 3.8998 16.3999 3.8998 16.3999 4.5998 12.9999 4.5998"/>            <path d="M17.1,2.3 C17.1,1 18.1,0 19.4,0 C20.2,0 20.7,0.3 21.2,0.7 L20.7,1.3 C20.3,1 20,0.7 19.4,0.7 C18.5,0.7 17.9,1.4 17.9,2.3 C17.9,3.2 18.5,3.9 19.4,3.9 C20,3.9 20.3,3.7 20.7,3.3 L21.3,3.8 C20.8,4.3 20.3,4.6 19.5,4.6 C18.1,4.6 17.1,3.6 17.1,2.3" id="Fill-12" fill="#5FAFB6"/>            <polygon id="Fill-14" fill="#5FAFB6" points="23.2001 0.8 21.8001 0.8 21.8001 0.1 25.5001 0.1 25.5001 0.8 24.1001 0.8 24.1001 4.6 23.3001 4.6 23.3001 0.8"/>            <path d="M28.2001,2.3 C28.8001,2.3 29.1001,2 29.1001,1.5 C29.1001,1 28.8001,0.8 28.2001,0.8 L27.1001,0.8 L27.1001,2.3 L28.2001,2.3 Z M26.3001,0.1 L28.3001,0.1 C28.9001,0.1 29.3001,0.3 29.6001,0.6 C29.8001,0.8 30.0001,1.2 30.0001,1.6 C30.0001,2.3 29.6001,2.8 28.9001,3 L30.1001,4.6 L29.2001,4.6 L28.1001,3 L27.1001,3 L27.1001,4.6 L26.3001,4.6 L26.3001,0.1 Z" id="Fill-16" fill="#5FAFB6"/>            <path d="M30.8998,2.6999 L30.8998,0.0999 L31.6998,0.0999 L31.6998,2.6999 C31.6998,3.4999 32.0998,3.9999 32.7998,3.9999 C33.4998,3.9999 33.8998,3.5999 33.8998,2.6999 L33.8998,0.0999 L34.6998,0.0999 L34.6998,2.6999 C34.6998,3.9999 33.8998,4.6999 32.7998,4.6999 C31.5998,4.5999 30.8998,3.9999 30.8998,2.6999" id="Fill-18" fill="#5FAFB6"/>            <polygon id="Fill-20" fill="#5FAFB6" points="35.8002 0.0998 36.6002 0.0998 38.0002 2.1998 39.4002 0.0998 40.2002 0.0998 40.2002 4.5998 39.4002 4.5998 39.4002 1.2998 38.0002 3.3998 36.6002 1.2998 36.6002 4.4998 35.8002 4.4998"/>            <polygon id="Fill-22" fill="#5FAFB6" points="43.3002 0.0998 44.1002 0.0998 46.5002 3.1998 46.5002 0.0998 47.3002 0.0998 47.3002 4.5998 46.6002 4.5998 44.1002 1.3998 44.1002 4.5998 43.3002 4.5998"/>            <polygon id="Fill-24" fill="#5FAFB6" points="48.3998 0.0998 51.6998 0.0998 51.6998 0.7998 49.0998 0.7998 49.0998 1.9998 51.3998 1.9998 51.3998 2.6998 49.0998 2.6998 49.0998 3.8998 51.6998 3.8998 51.6998 4.5998 48.2998 4.5998 48.2998 0.0998"/>            <polygon id="Fill-26" fill="#5FAFB6" points="52.3998 0.0998 53.2998 0.0998 54.3998 3.4998 55.4998 0.0998 56.0998 0.0998 57.1998 3.4998 58.2998 0.0998 59.0998 0.0998 57.4998 4.6998 56.7998 4.6998 55.6998 1.4998 54.5998 4.6998 53.8998 4.6998"/>            <path d="M59.6,3.9001 L60.1,3.3001 C60.5,3.7001 61,3.9001 61.5,3.9001 C62,3.9001 62.3,3.7001 62.3,3.3001 C62.3,3.0001 62.1,2.8001 61.3,2.6001 C60.3,2.4001 59.8,2.1001 59.8,1.3001 C59.8,0.5001 60.4,0.0001 61.3,0.0001 C62,0.0001 62.5,0.2001 62.9,0.6001 L62.5,1.2001 C62.1,0.9001 61.7,0.7001 61.3,0.7001 C60.8,0.7001 60.6,0.9001 60.6,1.2001 C60.6,1.5001 60.8,1.7001 61.7,1.9001 C62.7,2.1001 63.2,2.5001 63.2,3.2001 C63.2,4.0001 62.5,4.5001 61.6,4.5001 C60.8,4.6001 60.2,4.4001 59.6,3.9001" id="Fill-28" fill="#5FAFB6"/>            <polygon id="Fill-30" fill="#5FAFB6" points="64.0004 0.0998 64.8994 0.0998 64.3004 1.9998 63.8994 1.9998"/>            <mask id="mask-4" fill="white">                <use xlink:href="#path-3"/>            </mask>            <g id="Clip-33"/>            <polygon id="Fill-32" fill="#5FAFB6" mask="url(#mask-4)" points="65.7 4.5 114.2 4.5 114.2 0 65.7 0"/>        </g>    </g></svg>