<svg xmlns="http://www.w3.org/2000/svg" viewBox="0 0 421.27 194.55"><path fill="#5D1F67" d="M32.046 81.713c-8.08 0-17.814-3.213-24.04-7.306l4.573-14.987c5.747 4.187 13.24 6.907 19.96 6.907 5.84 0 8.08-2.72 8.08-6.227 0-3.693-1.853-6.227-12.747-10.613-12.56-5.067-16.933-12.36-16.933-20.92 0-10.414 8.467-20.534 25.107-20.534 7.786 0 15.773 2.72 19.96 5.547l-4.2 14.8c-4.094-2.827-10.707-5.84-15.774-5.84-6.04 0-8.466 2.827-8.466 5.747 0 4.666 3.6 6.226 12.56 10.026 13.333 5.64 17.32 12.067 17.32 21.214 0 11.386-8.267 22.186-25.4 22.186M129.085 24.385v56.16H112.54v-56.16H91.125V9.2H150.5v15.186h-21.414zM207.634 37.817l-7.107 17.134h14.12l-7.013-17.134zm17.613 42.734L219.9 67.604h-24.626l-5.347 12.947h-16.84L206.66 8.617h2.24l33.587 71.934h-17.24zM303.506 24.385v56.16h-16.547v-56.16h-21.413V9.2h59.373v15.186h-21.413zM362.587 80.545V9.2h45.16v15.186h-28.614v12.747h26.094v14.4h-26.094v13.933h28.614v15.08h-45.16zM414.68 169.947H4.867V99.96H414.68v69.987z"/><path fill="#FFF" d="M31.893 124.506c-5.573 0-9.306 4.56-9.306 10.894 0 6.293 3.746 10.893 9.306 10.893S41.2 141.68 41.2 135.4c0-6.334-3.733-10.894-9.307-10.894m-.146 29.04c-10.894 0-17.854-7.826-17.854-18.146 0-10.374 7.294-18.187 18.187-18.187 10.853 0 17.853 7.827 17.853 18.187 0 10.32-7.333 18.146-18.186 18.146M73.222 125.275v7.773h12.093v7.147H73.222v12.773h-8.16V117.78H87.33v7.494H73.222zM130.82 125.178c-1.053 0-1.773.053-3.026.2v10.027c1.16.04 1.68.093 2.453.093 4.32 0 6.48-1.867 6.48-5.28 0-2.827-1.88-5.04-5.907-5.04m0 17.373c-1.146 0-1.92-.053-3.026-.093v10.507h-8.16v-34.84c3.6-.387 6.866-.574 9.786-.574 10.174 0 15.64 5.427 15.64 12.534.014 7.24-4.933 12.466-14.24 12.466M176.083 124.506c-5.573 0-9.306 4.56-9.306 10.894 0 6.293 3.746 10.893 9.306 10.893s9.307-4.613 9.307-10.893c0-6.334-3.733-10.894-9.307-10.894m-.146 29.04c-10.894 0-17.854-7.826-17.854-18.146 0-10.374 7.294-18.187 18.187-18.187 10.853 0 17.853 7.827 17.853 18.187 0 10.32-7.333 18.146-18.186 18.146M209.253 152.967v-35.186h8.16v27.746h14.107v7.44h-22.267zM245.107 117.787h8.16v35.186h-8.16v-35.186zM285.907 125.275v27.693h-8.16v-27.693h-10.56v-7.494h29.28v7.494h-10.56zM310.387 117.787h8.16v35.186h-8.16v-35.186zM353.154 153.543c-11.466 0-19.253-7.734-19.253-18.147 0-10.467 7.773-18.187 19.253-18.187 4.08 0 7.827 1.2 10.987 3.067l-2.493 6.907c-2.587-1.44-5.52-2.347-8.4-2.347-6.574 0-10.654 4.027-10.654 10.56 0 6.52 4.08 10.56 10.654 10.56 2.88 0 6.146-.96 8.786-2.587l2.454 6.907c-3.08 2.013-7.307 3.267-11.334 3.267M387.954 153.543c-3.987 0-8.787-1.587-11.853-3.6l2.253-7.387c2.827 2.067 6.533 3.413 9.84 3.413 2.88 0 3.987-1.346 3.987-3.066 0-1.827-.907-3.067-6.294-5.227-6.186-2.493-8.346-6.093-8.346-10.32 0-5.133 4.173-10.133 12.386-10.133 3.84 0 7.774 1.346 9.84 2.733l-2.066 7.293c-2.014-1.4-5.28-2.88-7.774-2.88-2.973 0-4.173 1.387-4.173 2.827 0 2.307 1.773 3.08 6.187 4.947 6.573 2.786 8.546 5.946 8.546 10.466 0 5.6-4.08 10.934-12.533 10.934"/><path fill="#5D1F67" d="M9.291 179.265c1.787 0 3.2 1.454 3.2 3.267s-1.413 3.267-3.2 3.267c-1.747 0-3.16-1.454-3.16-3.267s1.413-3.267 3.16-3.267M28.447 179.265c1.786 0 3.2 1.454 3.2 3.267s-1.414 3.267-3.2 3.267c-1.747 0-3.16-1.454-3.16-3.267s1.413-3.267 3.16-3.267M47.603 179.265c1.787 0 3.2 1.454 3.2 3.267s-1.413 3.267-3.2 3.267c-1.747 0-3.16-1.454-3.16-3.267s1.413-3.267 3.16-3.267M66.759 179.265c1.786 0 3.2 1.454 3.2 3.267s-1.414 3.267-3.2 3.267c-1.747 0-3.16-1.454-3.16-3.267s1.413-3.267 3.16-3.267M85.915 179.265c1.786 0 3.2 1.454 3.2 3.267s-1.414 3.267-3.2 3.267c-1.747 0-3.16-1.454-3.16-3.267s1.413-3.267 3.16-3.267M105.07 179.265c1.787 0 3.2 1.454 3.2 3.267s-1.413 3.267-3.2 3.267c-1.746 0-3.16-1.454-3.16-3.267s1.414-3.267 3.16-3.267M124.226 179.265c1.787 0 3.2 1.454 3.2 3.267s-1.413 3.267-3.2 3.267c-1.747 0-3.16-1.454-3.16-3.267s1.413-3.267 3.16-3.267M143.382 179.265c1.787 0 3.2 1.454 3.2 3.267s-1.413 3.267-3.2 3.267c-1.746 0-3.16-1.454-3.16-3.267s1.414-3.267 3.16-3.267M162.538 179.265c1.787 0 3.2 1.454 3.2 3.267s-1.413 3.267-3.2 3.267c-1.747 0-3.16-1.454-3.16-3.267s1.413-3.267 3.16-3.267M181.693 179.265c1.787 0 3.2 1.454 3.2 3.267s-1.413 3.267-3.2 3.267c-1.746 0-3.16-1.454-3.16-3.267s1.414-3.267 3.16-3.267M200.85 179.265c1.786 0 3.2 1.454 3.2 3.267s-1.414 3.267-3.2 3.267c-1.747 0-3.16-1.454-3.16-3.267s1.413-3.267 3.16-3.267M220.005 179.265c1.786 0 3.2 1.454 3.2 3.267s-1.414 3.267-3.2 3.267c-1.747 0-3.16-1.454-3.16-3.267s1.413-3.267 3.16-3.267M239.16 179.265c1.788 0 3.2 1.454 3.2 3.267s-1.412 3.267-3.2 3.267c-1.746 0-3.16-1.454-3.16-3.267s1.414-3.267 3.16-3.267M258.317 179.265c1.787 0 3.2 1.454 3.2 3.267s-1.413 3.267-3.2 3.267c-1.746 0-3.16-1.454-3.16-3.267s1.414-3.267 3.16-3.267M277.473 179.265c1.787 0 3.2 1.454 3.2 3.267s-1.413 3.267-3.2 3.267c-1.746 0-3.16-1.454-3.16-3.267s1.414-3.267 3.16-3.267M296.628 179.265c1.787 0 3.2 1.454 3.2 3.267s-1.413 3.267-3.2 3.267c-1.746 0-3.16-1.454-3.16-3.267s1.414-3.267 3.16-3.267M315.785 179.265c1.786 0 3.2 1.454 3.2 3.267s-1.414 3.267-3.2 3.267c-1.747 0-3.16-1.454-3.16-3.267s1.413-3.267 3.16-3.267M334.94 179.265c1.787 0 3.2 1.454 3.2 3.267s-1.413 3.267-3.2 3.267c-1.746 0-3.16-1.454-3.16-3.267s1.414-3.267 3.16-3.267M354.096 179.265c1.787 0 3.2 1.454 3.2 3.267s-1.413 3.267-3.2 3.267c-1.747 0-3.16-1.454-3.16-3.267s1.413-3.267 3.16-3.267M373.252 179.265c1.787 0 3.2 1.454 3.2 3.267s-1.413 3.267-3.2 3.267c-1.747 0-3.16-1.454-3.16-3.267s1.413-3.267 3.16-3.267M392.408 179.265c1.787 0 3.2 1.454 3.2 3.267s-1.413 3.267-3.2 3.267c-1.746 0-3.16-1.454-3.16-3.267s1.414-3.267 3.16-3.267M411.563 179.265c1.787 0 3.2 1.454 3.2 3.267s-1.413 3.267-3.2 3.267c-1.746 0-3.16-1.454-3.16-3.267s1.414-3.267 3.16-3.267"/></svg>