<?xml version="1.0" encoding="UTF-8"?>
<!-- Generator: Adobe Illustrator 27.0.0, SVG Export Plug-In . SVG Version: 6.00 Build 0) -->
<svg version="1.1" xmlns="http://www.w3.org/2000/svg" xmlns:xlink="http://www.w3.org/1999/xlink" x="0px" y="0px" viewBox="0 0 1708.5 469.45" style="enable-background:new 0 0 1708.5 469.45;" xml:space="preserve"><style type="text/css"> .st0{fill:#223F80;}
</style><g id="BADGE_-_NY1"><path class="st0" d="M1661.83,18.39h-352.89c-16.7,0-30.24,13.54-30.24,30.24v378.75c0,16.7,13.54,30.24,30.24,30.24h352.89 c16.7,0,30.24-13.54,30.24-30.24V48.63C1692.07,31.93,1678.53,18.39,1661.83,18.39z M1427.48,182.89h-17.87l-52.06-59.05v59.05 h-27.66V74.11h17.72l52.22,59.21V74.11h27.66V182.89z M1508.3,182.89h-27.97v-42.27l-39.93-66.51h31.7l22.69,41.49l22.69-41.49 h30.77l-39.94,66.51V182.89z M1639.89,402.2h-59.67V290.64l-38.15,17.85l-10.54-53.91l66.32-33.95h42.05V402.2z"/></g><g id="SPECTRUM"><g><path class="st0" d="M60.49,183.79c-9.33,0-18.47-1.27-27.41-3.8c-8.94-2.54-16.37-5.96-22.28-10.26l4.9-17.52 c5.6,4.3,12.4,7.72,20.41,10.26c8.01,2.54,16.05,3.8,24.14,3.8c11.2,0,20.02-2.61,26.47-7.84c6.45-5.22,9.68-12.3,9.68-21.21 c0-7.99-2.84-14.45-8.51-19.37c-5.68-4.92-15.67-9.37-29.97-13.37c-14.78-4.3-25.66-9.99-32.66-17.06 c-7-7.07-10.5-15.99-10.5-26.75c0-8.76,2.25-16.45,6.76-23.06c4.51-6.61,10.85-11.79,19.01-15.56c8.16-3.77,17.53-5.65,28.11-5.65 c7.77,0,15.47,1.08,23.09,3.23c7.62,2.16,14.38,5.15,20.29,8.99l-3.97,17.06c-5.75-3.69-12.09-6.57-19.01-8.65 c-6.92-2.08-13.73-3.11-20.41-3.11c-10.26,0-18.47,2.35-24.61,7.03c-6.14,4.69-9.21,11.03-9.21,19.02 c0,6.61,2.64,12.07,7.93,16.37c5.28,4.31,14.23,8.23,26.82,11.76c16.01,4.46,27.87,10.72,35.57,18.79 c7.7,8.07,11.55,18.02,11.55,29.86c0,14.45-5.06,25.9-15.16,34.36C91.43,179.56,77.75,183.79,60.49,183.79z"/><path class="st0" d="M148.19,180.79V19.38h48.52c18.66,0,33.2,4.38,43.62,13.14c10.42,8.76,15.63,20.91,15.63,36.43 c0,15.37-5.25,27.48-15.74,36.32c-10.5,8.84-25,13.26-43.5,13.26h-28.22v62.25H148.19z M196.71,36.45h-28.22v65.02h28.22 c12.6,0,22.2-2.77,28.81-8.3c6.61-5.53,9.91-13.6,9.91-24.21c0-10.76-3.31-18.87-9.91-24.33C218.9,39.18,209.3,36.45,196.71,36.45 z"/><path class="st0" d="M281.84,180.79V19.38h101v17.52h-80.71v51.88h59.71v17.52h-59.71v56.95h83.04v17.52H281.84z"/><path class="st0" d="M486.17,183.79c-16.48,0-30.99-3.5-43.5-10.49c-12.52-6.99-22.24-16.72-29.16-29.17 c-6.92-12.45-10.38-26.98-10.38-43.58c0-12.3,2.06-23.55,6.18-33.78c4.12-10.22,9.87-19.1,17.26-26.63 c7.38-7.53,16.13-13.37,26.24-17.52c10.11-4.15,21.15-6.23,33.12-6.23c9.33,0,18.35,1.31,27.06,3.92 c8.71,2.62,16.33,6.3,22.86,11.07l-3.97,18.22c-6.38-4.76-13.45-8.45-21.23-11.07c-7.78-2.61-15.71-3.92-23.79-3.92 c-12.29,0-23.13,2.77-32.54,8.3c-9.41,5.53-16.76,13.22-22.04,23.06c-5.29,9.84-7.93,21.21-7.93,34.12s2.6,24.29,7.81,34.12 c5.21,9.84,12.56,17.52,22.04,23.06c9.48,5.53,20.45,8.3,32.89,8.3c8.4,0,16.68-1.34,24.84-4.04c8.16-2.69,15.35-6.42,21.58-11.18 l3.97,18.21c-6.53,4.77-14.31,8.5-23.33,11.18C505.14,182.44,495.81,183.79,486.17,183.79z"/><path class="st0" d="M605.6,180.79V36.91h-52.95V19.38h126.42v17.52h-52.95v143.88H605.6z"/><path class="st0" d="M703.1,180.79V19.38h48.98c18.66,0,33.24,4.27,43.74,12.8c10.5,8.53,15.74,20.33,15.74,35.39 c0,13.07-4.12,23.67-12.36,31.82c-8.24,8.15-19.83,13.14-34.76,14.99l62.05,66.41h-26.12l-60.18-65.71h-16.79v65.71H703.1z M752.08,36.45h-28.69v61.56h28.69c12.75,0,22.43-2.61,29.04-7.84c6.61-5.22,9.91-12.76,9.91-22.6 C791.03,46.82,778.05,36.45,752.08,36.45z"/><path class="st0" d="M907.9,183.79c-13.38,0-25-2.77-34.87-8.3c-9.88-5.53-17.53-13.37-22.98-23.52 c-5.44-10.15-8.16-22.06-8.16-35.74V19.38h20.53v96.84c0,15.37,4.04,27.4,12.13,36.09c8.08,8.69,19.2,13.03,33.36,13.03 c13.84,0,24.8-4.38,32.89-13.14c8.08-8.76,12.13-20.75,12.13-35.97V19.38h20.53v96.84c0,13.53-2.72,25.36-8.16,35.51 c-5.45,10.15-13.1,18.03-22.98,23.63C932.42,180.98,920.96,183.79,907.9,183.79z"/><path class="st0" d="M1005.16,180.79l7.93-161.4h12.83l63.21,103.99l62.51-103.99h12.83l7.93,161.4h-19.83l-5.37-120.36l-55.75,92 h-5.83l-55.51-91.31l-5.13,119.67H1005.16z"/></g></g><g id="NEWS"><g><path class="st0" d="M282.48,458.96V235.47h36.82l108.52,121.64V235.47h57.49v223.48h-37.14L339.96,337.64v121.32H282.48z"/><path class="st0" d="M527.29,458.96V235.47h153.09v49.49h-96.24v36.71h67.18v48.53h-67.18v39.27h99.47v49.49H527.29z"/><path class="st0" d="M777.26,458.96l-72.99-223.48h61.69l35.2,123.55l49.09-113.66h9.69l50.38,114.29l35.53-124.19h60.4 l-72.99,223.48h-38.11l-40.05-99.93l-40.37,99.93H777.26z"/><path class="st0" d="M1089.9,464.06c-13.35,0-26.81-1.87-40.37-5.59c-13.56-3.72-24.98-8.67-34.24-14.85l13.24-46.93 c7.32,5.54,16.47,10.01,27.45,13.41c10.98,3.41,21.85,5.11,32.62,5.11c10.33,0,18.35-1.76,24.06-5.27 c5.7-3.51,8.56-8.57,8.56-15.17c0-4.25-1.02-7.77-3.07-10.54c-2.05-2.76-5.97-5.48-11.79-8.14c-5.81-2.66-14.65-5.8-26.48-9.42 c-39.4-12.34-59.1-34.37-59.1-66.09c0-14.05,3.66-26.34,10.98-36.87c7.32-10.54,17.6-18.73,30.84-24.58 c13.24-5.85,28.58-8.78,46.02-8.78c11.19,0,22.55,1.6,34.07,4.79c11.52,3.19,21.37,7.56,29.55,13.09l-9.37,47.89 c-18.52-11.49-36.61-17.24-54.26-17.24c-9.48,0-16.91,1.65-22.29,4.95c-5.38,3.3-8.07,7.93-8.07,13.89 c0,5.32,2.47,9.69,7.43,13.09c4.95,3.41,13.89,6.92,26.81,10.54c23.04,6.6,39.89,15.54,50.54,26.82 c10.66,11.28,15.99,25.86,15.99,43.74c0,22.56-7.91,40.23-23.74,53C1139.47,457.68,1117.67,464.06,1089.9,464.06z"/></g></g></svg>