<?xml version="1.0" encoding="UTF-8"?>
<!-- Generator: Adobe Illustrator 27.0.0, SVG Export Plug-In . SVG Version: 6.00 Build 0) -->
<svg version="1.1" xmlns="http://www.w3.org/2000/svg" xmlns:xlink="http://www.w3.org/1999/xlink" x="0px" y="0px" viewBox="0 0 1708.5 469.45" style="enable-background:new 0 0 1708.5 469.45;" xml:space="preserve"><style type="text/css"> .st0{fill:#223F80;}
</style><g id="BADGE_-_NY1"><path class="st0" d="M1661.83,18.39h-352.89c-16.7,0-30.24,13.54-30.24,30.24v378.75c0,16.7,13.54,30.24,30.24,30.24h352.89 c16.7,0,30.24-13.54,30.24-30.24V48.63C1692.07,31.93,1678.53,18.39,1661.83,18.39z M1427.48,182.89h-17.87l-52.06-59.05v59.05 h-27.66V74.11h17.72l52.22,59.21V74.11h27.66V182.89z M1508.3,182.89h-27.97v-42.27l-39.93-66.51h31.7l22.69,41.49l22.69-41.49 h30.77l-39.94,66.51V182.89z M1639.89,402.2h-59.67V290.64l-38.15,17.85l-10.54-53.91l66.32-33.95h42.05V402.2z"/></g><g id="NOTICIAS"><g><path class="st0" d="M110.22,440V277.39h26.48l78.06,88.51v-88.51h41.35V440H229.4l-77.82-88.28V440H110.22z"/><path class="st0" d="M363.44,443.72c-12.39,0-23.85-2.13-34.38-6.39c-10.53-4.26-19.67-10.18-27.41-17.77 c-7.75-7.59-13.79-16.57-18.12-26.95c-4.34-10.37-6.5-21.68-6.5-33.92c0-12.08,2.17-23.27,6.5-33.57 c4.33-10.3,10.41-19.32,18.24-27.06c7.82-7.74,17-13.74,27.53-18c10.53-4.26,21.91-6.39,34.15-6.39c12.39,0,23.85,2.13,34.38,6.39 c10.53,4.26,19.67,10.18,27.41,17.77c7.74,7.59,13.78,16.57,18.12,26.95c4.33,10.38,6.5,21.68,6.5,33.92 c0,12.08-2.17,23.27-6.5,33.57c-4.34,10.3-10.42,19.32-18.24,27.06c-7.82,7.75-16.96,13.75-27.41,18 C387.25,441.59,375.83,443.72,363.44,443.72z M363.44,405.39c8.36,0,15.76-2.01,22.19-6.04c6.42-4.03,11.46-9.56,15.1-16.61 c3.64-7.05,5.46-15.06,5.46-24.04c0-8.98-1.82-16.99-5.46-24.04c-3.64-7.04-8.68-12.58-15.1-16.61 c-6.43-4.03-13.82-6.04-22.19-6.04c-8.21,0-15.56,2.01-22.07,6.04c-6.5,4.03-11.58,9.56-15.22,16.61 c-3.64,7.05-5.46,15.06-5.46,24.04c0,8.98,1.82,17,5.46,24.04c3.64,7.05,8.71,12.58,15.22,16.61 C347.87,403.38,355.23,405.39,363.44,405.39z"/><path class="st0" d="M497.71,440V313.86h-46v-36.47h133.81v36.47h-46V440H497.71z"/><path class="st0" d="M602.71,440V277.39h41.82V440H602.71z"/><path class="st0" d="M754.87,443.72c-17.97,0-33.68-3.56-47.16-10.69c-13.47-7.12-23.89-16.96-31.25-29.5 c-7.36-12.54-11.03-27.02-11.03-43.44c0-12.7,2.21-24.31,6.62-34.85c4.41-10.53,10.65-19.67,18.7-27.41 c8.05-7.74,17.5-13.71,28.34-17.89c10.84-4.18,22.61-6.27,35.31-6.27c9.29,0,18.12,1.08,26.48,3.25 c8.36,2.17,15.48,5.27,21.37,9.29l-6.5,36.94c-13.47-7.74-26.25-11.62-38.33-11.62c-9.45,0-17.77,2.01-24.97,6.04 c-7.2,4.03-12.82,9.56-16.84,16.61c-4.03,7.05-6.04,15.22-6.04,24.51s2.01,17.46,6.04,24.51c4.03,7.05,9.64,12.58,16.84,16.61 c7.2,4.03,15.68,6.04,25.44,6.04c6.81,0,13.71-1.04,20.68-3.14s13.09-5.15,18.35-9.18l6.74,36.94 c-5.58,4.34-12.58,7.63-21.02,9.87C774.19,442.59,764.94,443.72,754.87,443.72z"/><path class="st0" d="M821.31,440V277.39h41.82V440H821.31z"/><path class="st0" d="M878.93,440l72.71-162.62h26.72L1050.6,440h-46.69l-9.52-25.32h-60.63L924.23,440H878.93z M945.6,383.09 h37.17l-18.58-49.71L945.6,383.09z"/><path class="st0" d="M1113.32,443.72c-9.6,0-19.28-1.36-29.04-4.07s-17.97-6.31-24.62-10.8l9.52-34.15 c5.26,4.03,11.85,7.28,19.75,9.76c7.9,2.48,15.72,3.72,23.46,3.72c7.43,0,13.2-1.28,17.31-3.83c4.1-2.56,6.16-6.23,6.16-11.04 c0-3.1-0.74-5.65-2.21-7.67c-1.47-2.01-4.3-3.99-8.48-5.92c-4.18-1.93-10.53-4.22-19.05-6.85c-28.34-8.98-42.51-25.01-42.51-48.09 c0-10.22,2.63-19.17,7.9-26.83c5.26-7.67,12.66-13.63,22.19-17.89c9.52-4.26,20.56-6.39,33.1-6.39c8.05,0,16.22,1.16,24.51,3.48 c8.28,2.32,15.37,5.5,21.26,9.52l-6.74,34.85c-13.32-8.36-26.33-12.54-39.03-12.54c-6.82,0-12.16,1.2-16.03,3.6 c-3.87,2.4-5.81,5.77-5.81,10.11c0,3.87,1.78,7.05,5.34,9.52c3.56,2.48,9.99,5.04,19.28,7.67c16.57,4.8,28.69,11.31,36.36,19.51 c7.67,8.21,11.5,18.82,11.5,31.83c0,16.42-5.69,29.27-17.08,38.56C1148.98,439.07,1133.3,443.72,1113.32,443.72z"/></g></g><g id="SPECTRUM_for_Noti"><g><path class="st0" d="M61.19,200.34c-9.33,0-18.47-1.27-27.41-3.8c-8.94-2.54-16.37-5.96-22.28-10.26l4.9-17.52 c5.6,4.3,12.4,7.72,20.41,10.26c8.01,2.54,16.05,3.8,24.14,3.8c11.2,0,20.02-2.61,26.47-7.84c6.45-5.22,9.68-12.3,9.68-21.21 c0-7.99-2.84-14.45-8.51-19.37c-5.68-4.92-15.67-9.37-29.97-13.37c-14.78-4.3-25.66-9.99-32.66-17.06 c-7-7.07-10.5-15.99-10.5-26.75c0-8.76,2.25-16.45,6.76-23.06c4.51-6.61,10.85-11.79,19.01-15.56c8.16-3.77,17.53-5.65,28.11-5.65 c7.77,0,15.47,1.08,23.09,3.23c7.62,2.16,14.38,5.15,20.29,8.99l-3.97,17.06c-5.75-3.69-12.09-6.57-19.01-8.65 c-6.92-2.08-13.73-3.11-20.41-3.11c-10.26,0-18.47,2.35-24.61,7.03c-6.14,4.69-9.21,11.03-9.21,19.02 c0,6.61,2.64,12.07,7.93,16.37c5.28,4.31,14.23,8.23,26.82,11.76c16.01,4.46,27.87,10.72,35.57,18.79 c7.7,8.07,11.55,18.02,11.55,29.86c0,14.45-5.06,25.9-15.16,34.36C92.14,196.11,78.45,200.34,61.19,200.34z"/><path class="st0" d="M148.89,197.34V35.94h48.52c18.66,0,33.2,4.38,43.62,13.14c10.42,8.76,15.63,20.91,15.63,36.43 c0,15.37-5.25,27.48-15.74,36.32c-10.5,8.84-25,13.26-43.5,13.26h-28.22v62.25H148.89z M197.41,53h-28.22v65.02h28.22 c12.6,0,22.2-2.77,28.81-8.3c6.61-5.53,9.91-13.6,9.91-24.21c0-10.76-3.31-18.87-9.91-24.33C219.61,55.73,210.01,53,197.41,53z"/><path class="st0" d="M282.55,197.34V35.94h101v17.52h-80.71v51.88h59.71v17.52h-59.71v56.95h83.04v17.52H282.55z"/><path class="st0" d="M486.88,200.34c-16.48,0-30.99-3.5-43.5-10.49c-12.52-6.99-22.24-16.72-29.16-29.17 c-6.92-12.45-10.38-26.98-10.38-43.58c0-12.3,2.06-23.55,6.18-33.78c4.12-10.22,9.87-19.1,17.26-26.63 c7.38-7.53,16.13-13.37,26.24-17.52c10.11-4.15,21.15-6.23,33.12-6.23c9.33,0,18.35,1.31,27.06,3.92 c8.71,2.62,16.33,6.3,22.86,11.07l-3.97,18.22c-6.38-4.76-13.45-8.45-21.23-11.07c-7.78-2.61-15.71-3.92-23.79-3.92 c-12.29,0-23.13,2.77-32.54,8.3c-9.41,5.53-16.76,13.22-22.04,23.06c-5.29,9.84-7.93,21.21-7.93,34.12s2.6,24.29,7.81,34.12 c5.21,9.84,12.56,17.52,22.04,23.06c9.48,5.53,20.45,8.3,32.89,8.3c8.4,0,16.68-1.34,24.84-4.04c8.16-2.69,15.35-6.42,21.58-11.18 l3.97,18.21c-6.53,4.77-14.31,8.5-23.33,11.18C505.85,198.99,496.52,200.34,486.88,200.34z"/><path class="st0" d="M606.3,197.34V53.46h-52.95V35.94h126.42v17.52h-52.95v143.88H606.3z"/><path class="st0" d="M703.8,197.34V35.94h48.98c18.66,0,33.24,4.27,43.74,12.8c10.5,8.53,15.74,20.33,15.74,35.39 c0,13.07-4.12,23.67-12.36,31.82c-8.24,8.15-19.83,13.14-34.76,14.99l62.05,66.41h-26.12l-60.18-65.71H724.1v65.71H703.8z M752.79,53H724.1v61.56h28.69c12.75,0,22.43-2.61,29.04-7.84c6.61-5.22,9.91-12.76,9.91-22.6C791.74,63.37,778.76,53,752.79,53z"/><path class="st0" d="M908.6,200.34c-13.38,0-25-2.77-34.87-8.3c-9.88-5.53-17.53-13.37-22.98-23.52 c-5.44-10.15-8.16-22.06-8.16-35.74V35.94h20.53v96.84c0,15.37,4.04,27.4,12.13,36.09c8.08,8.69,19.2,13.03,33.36,13.03 c13.84,0,24.8-4.38,32.89-13.14c8.08-8.76,12.13-20.75,12.13-35.97V35.94h20.53v96.84c0,13.53-2.72,25.36-8.16,35.51 c-5.45,10.15-13.1,18.03-22.98,23.63C933.13,197.53,921.66,200.34,908.6,200.34z"/><path class="st0" d="M1005.87,197.34l7.93-161.4h12.83l63.21,103.99l62.51-103.99h12.83l7.93,161.4h-19.83l-5.37-120.36l-55.75,92 h-5.83l-55.51-91.31l-5.13,119.67H1005.87z"/></g></g></svg>