<svg viewBox="0 0 197 69" version="1.1" xmlns="http://www.w3.org/2000/svg" xmlns:xlink="http://www.w3.org/1999/xlink">        <desc>Created with Sketch.</desc>    <defs/>    <g id="Page-1" stroke="none" stroke-width="1" fill="none" fill-rule="evenodd">        <g id="Unknown" fill-rule="nonzero">            <g id="Group" transform="translate(0.000000, 8.000000)" fill="#0D4290">                <path d="M23.9028571,40.667 L27.824,18.3464706 L36.0825714,18.3464706 L29.7375714,54.3570588 L19.3539286,54.3570588 L12.1864286,32.0734118 L8.25857143,54.3570588 L0,54.3570588 L6.35171429,18.3464706 L16.6715714,18.3464706 M44.1128571,46.6855294 L58.468,46.6855294 L57.0714286,54.3570588 L34.2092857,54.3570588 L40.5542857,18.3464706 L63.5775714,18.3464706 L62.1843571,26.0079412 L47.7822143,26.0079412 L46.7482143,31.8219412 L60.0156429,31.8219412 L58.6257857,39.4800588 L45.4120714,39.4800588 M114.445,18.3464706 L97.9849286,54.3570588 L88.0746429,54.3570588 L87.1950714,34.0851765 L77.9528571,54.3537059 L67.7874286,54.3537059 L66.1860714,18.3431176 L74.9146429,18.3431176 L75.8378571,42.8262941 L87.091,18.3397647 L93.3352857,18.3397647 L94.376,42.8229412 L105.622429,18.3364118 M126.205071,46.3032941 C126.842929,46.0451176 127.326357,45.6997647 127.655357,45.2739412 C127.981,44.8481176 128.185786,44.3787059 128.273071,43.8657059 C128.360357,43.3527059 128.400643,42.833 128.400643,42.3233529 C128.400643,41.4951765 128.115286,40.8815882 127.547929,40.4658235 C126.977214,40.0567647 125.9365,39.8488824 124.425786,39.8488824 L123.908786,39.8488824 C120.158857,39.8488824 117.416071,39.2788824 115.677071,38.1254706 C113.938071,36.9787647 113.068571,35.1547647 113.068571,32.6467647 C113.075286,32.2678824 113.095429,31.8856471 113.149143,31.49 C113.1995,31.0943529 113.256571,30.6517647 113.330429,30.1756471 L113.639286,28.5327059 C114.293929,24.9953529 115.727429,22.4169412 117.949857,20.7874118 C120.165571,19.1578824 123.3985,18.3397647 127.6285,18.3397647 L139.915643,18.3397647 L138.572786,26.0045882 L126.386357,26.0045882 C125.355714,26.0045882 124.523143,26.1051765 123.885286,26.3130588 C123.247429,26.5142353 122.757286,26.816 122.414857,27.1848235 C122.069071,27.5637059 121.837429,28.0230588 121.716571,28.5762941 C121.595714,29.1295294 121.535286,29.7297059 121.535286,30.3801765 C121.535286,31.1681176 121.837429,31.7682941 122.441714,32.1807059 C123.046,32.5931176 124.066571,32.7976471 125.510143,32.7976471 L126.027143,32.7976471 C129.777071,32.7976471 132.523214,33.3575882 134.258857,34.4942353 C135.9945,35.6241765 136.864,37.4247059 136.864,39.8924706 C136.864,40.2713529 136.8405,40.6737059 136.783429,41.0995294 C136.733071,41.5354118 136.672643,41.9847059 136.602143,42.4675294 L136.3,44.1674706 C135.645357,47.7014706 134.218571,50.2832353 132.016286,51.9127647 C129.814,53.5422941 126.577714,54.3604118 122.314143,54.3604118 L109.456286,54.3604118 L110.799143,46.6922353 L123.556286,46.6922353 C124.684286,46.6922353 125.570571,46.5581176 126.208429,46.3066471" id="Shape"/>                <path d="M6.89221429,15.1008235 L7.42935714,11.8987647 L12.5892857,11.8987647 C12.9518571,11.8987647 13.2472857,11.8652353 13.4755714,11.7981765 C13.7105714,11.7311176 13.8918571,11.6439412 14.0295,11.5366471 C14.1637857,11.426 14.2645,11.3019412 14.3316429,11.1477059 C14.3987857,10.9968235 14.4491429,10.8392353 14.476,10.6715882 C14.5162857,10.4368824 14.5431429,10.2155882 14.5431429,10.0144118 C14.5431429,9.81323529 14.4995,9.64558824 14.4021429,9.49805882 C14.3115,9.35723529 14.147,9.24658824 13.9220714,9.16276471 C13.6937857,9.08564706 13.3748571,9.04541176 12.9619286,9.04541176 L12.6262143,9.04541176 C11.7768571,9.04541176 11.0483571,8.96829412 10.4541429,8.81741176 C9.85657143,8.66652941 9.38657143,8.42176471 9.04414286,8.08982353 C8.695,7.75452941 8.46671429,7.32535294 8.35928571,6.79894118 C8.30892857,6.55417647 8.28542857,6.28594118 8.28542857,5.99423529 C8.28542857,5.67570588 8.319,5.32364706 8.38614286,4.93805882 L8.49692857,4.26747059 C8.63121429,3.54658824 8.84271429,2.92629412 9.13478571,2.38982353 C9.43692857,1.86341176 9.81964286,1.43088235 10.2963571,1.08888235 C10.7730714,0.753588235 11.3437857,0.495411765 12.0085,0.331117647 C12.6665,0.163470588 13.4252143,0.0796470588 14.2913571,0.0796470588 L19.2935,0.0796470588 L18.7362143,3.28505882 L13.7743571,3.28505882 C13.3882857,3.28505882 13.0760714,3.31858824 12.8410714,3.37894118 C12.6060714,3.43929412 12.4180714,3.52982353 12.2871429,3.64717647 C12.1528571,3.76452941 12.0588571,3.90870588 12.0017857,4.08305882 C11.9447143,4.25070588 11.8943571,4.45188235 11.8540714,4.67317647 C11.8137857,4.89782353 11.8070714,5.09229412 11.8305714,5.25994118 C11.8540714,5.42758824 11.9212143,5.56170588 12.032,5.67570588 C12.1461429,5.78970588 12.3106429,5.87688235 12.5355714,5.93052941 C12.7537857,5.98752941 13.0391429,6.01770588 13.4017143,6.01770588 L13.7508571,6.01770588 C14.5968571,6.01770588 15.3186429,6.09482353 15.9162143,6.24570588 C16.5070714,6.39323529 16.9804286,6.638 17.3262143,6.96994118 C17.6787143,7.30523529 17.907,7.73441176 18.0144286,8.26082353 C18.0681429,8.50558824 18.095,8.78052941 18.095,9.08229412 C18.095,9.40417647 18.0614286,9.75288235 17.9942857,10.1384706 L17.8801429,10.8425882 C17.7525714,11.5735294 17.5377143,12.2072353 17.2422857,12.7437059 C16.9401429,13.2801765 16.5540714,13.7227647 16.074,14.0681176 C15.5972857,14.4134706 15.0265714,14.6716471 14.3618571,14.8392941 C13.7005,15.0069412 12.9417857,15.0907647 12.0857143,15.0907647 L6.89221429,15.0907647 L6.89221429,15.1008235 Z M18.7865714,15.1008235 L21.3581429,0.0930588235 L27.3170714,0.0930588235 C28.0825,0.0930588235 28.7539286,0.170176471 29.3313571,0.327764706 C29.9121429,0.478647059 30.3821429,0.730117647 30.7413571,1.08217647 C31.1106429,1.43758824 31.3590714,1.88688235 31.4933571,2.43341176 C31.5605,2.70835294 31.5940714,3.01011765 31.5873571,3.33870588 C31.5873571,3.68405882 31.5537857,4.05623529 31.4866429,4.45523529 L31.1509286,6.39323529 C30.9025,7.86852941 30.3015714,8.94817647 29.3515,9.64558824 C28.4047857,10.3396471 27.0753571,10.685 25.3699286,10.6984118 L22.9796429,10.6984118 L22.2242857,15.1008235 L18.7832143,15.1008235 L18.7865714,15.1008235 Z M23.5268571,7.48964706 L25.9104286,7.48964706 C26.2595714,7.48964706 26.5482857,7.45611765 26.7665,7.39576471 C26.9914286,7.32870588 27.1693571,7.24152941 27.3103571,7.11747059 C27.4446429,7.00011765 27.5554286,6.84252941 27.6259286,6.65476471 C27.6930714,6.467 27.7501429,6.24570588 27.7937857,5.99423529 L28.0355,4.59270588 C28.0623571,4.42505882 28.0757857,4.27752941 28.0757857,4.15682353 C28.0757857,4.06964706 28.0757857,3.99923529 28.0657143,3.94558824 C28.0388571,3.77794118 27.9717143,3.64382353 27.8642857,3.55329412 C27.7535,3.45941176 27.6024286,3.39235294 27.4110714,3.35211765 C27.2163571,3.31858824 26.9746429,3.29847059 26.6926429,3.29847059 L24.2419286,3.29847059 L23.5335714,7.493 L23.5268571,7.48964706 Z M31.0804286,15.1008235 L33.6419286,0.0930588235 L43.2702143,0.0930588235 L42.723,3.29511765 L36.5458571,3.29511765 L36.1295714,5.726 L41.8367143,5.726 L41.2861429,8.92805882 L35.5857143,8.92805882 L35.0821429,11.8987647 L41.2592857,11.8987647 L40.7154286,15.1008235 L31.0804286,15.1008235 Z M42.9714286,11.1108235 L44.18,4.07970588 C44.2572143,3.59688235 44.4250714,3.12076471 44.6835714,2.64464706 C44.9353571,2.17523529 45.2878571,1.73935294 45.7477857,1.36382353 C46.2043571,0.984941176 46.7750714,0.676470588 47.4599286,0.441764706 C48.1380714,0.207058824 48.9437857,0.0897058824 49.8703571,0.0897058824 L54.1809286,0.0897058824 L53.6303571,3.29176471 L49.6957857,3.29176471 C49.2425714,3.29176471 48.8766429,3.33870588 48.598,3.43258824 C48.3193571,3.52647059 48.1011429,3.65388235 47.9433571,3.81482353 C47.7855714,3.97576471 47.6747857,4.16017647 47.6076429,4.36805882 C47.5405,4.57929412 47.4834286,4.79723529 47.4397857,5.02188235 L46.5434286,10.2357059 C46.5031429,10.457 46.483,10.6648824 46.483,10.8660588 C46.483,11.0672353 46.5367143,11.2415882 46.6407857,11.3958235 C46.7415,11.5500588 46.9194286,11.6707647 47.1645,11.7646471 C47.4095714,11.8518235 47.7587143,11.8987647 48.2119286,11.8987647 L52.1465,11.8987647 L51.5959286,15.1041765 L47.2853571,15.1041765 C46.3587857,15.1041765 45.5967143,14.9868235 45.0025,14.7521176 C44.3982143,14.5174118 43.9416429,14.2089412 43.616,13.8267059 C43.2903571,13.4578824 43.0788571,13.0287059 42.9882143,12.5525882 C42.9412143,12.3011176 42.9143571,12.0496471 42.9076429,11.7981765 C42.9076429,11.5701765 42.9244286,11.3421765 42.9647143,11.1175294 L42.9714286,11.1108235 Z M54.8221429,3.29176471 L55.3727143,0.0930588235 L66.411,0.0930588235 L65.8637857,3.29511765 L62.0601429,3.29511765 L60.0391429,15.1041765 L56.6047857,15.1041765 L58.6257857,3.30182353 L54.8221429,3.30182353 L54.8221429,3.29176471 Z M65.1218571,15.1008235 L67.6934286,0.0930588235 L73.6422857,0.0930588235 C74.495,0.0930588235 75.2134286,0.183588235 75.8009286,0.361294118 C76.3817143,0.539 76.8416429,0.807235294 77.1773571,1.166 C77.5130714,1.51805882 77.7279286,1.97070588 77.8219286,2.51388235 C77.8622143,2.74858824 77.8823571,3.00676471 77.8823571,3.27835294 C77.8823571,3.63711765 77.8487857,4.02270588 77.7816429,4.43847059 L77.4459286,6.38317647 C77.1437857,8.19376471 76.281,9.43435294 74.8609286,10.1049412 L76.8282143,15.1008235 L73.1252857,15.1008235 L71.44,10.7017647 L69.2679286,10.7017647 L68.5125714,15.1041765 L65.1218571,15.1041765 L65.1218571,15.1008235 Z M69.8218571,7.48964706 L72.1886429,7.48964706 C72.5243571,7.48964706 72.8097143,7.45611765 73.038,7.39576471 C73.2662857,7.32870588 73.4509286,7.24152941 73.5952857,7.11747059 C73.7396429,7.00011765 73.8537857,6.84252941 73.931,6.65476471 C74.0082143,6.467 74.0652857,6.24570588 74.1089286,5.99423529 L74.354,4.59270588 C74.3808571,4.43176471 74.3942857,4.29094118 74.3942857,4.17358824 C74.3942857,4.08976471 74.3875714,4.01264706 74.3741429,3.93888235 C74.3472857,3.77123529 74.2734286,3.64382353 74.166,3.54994118 C74.0552143,3.45605882 73.8974286,3.389 73.696,3.34876471 C73.5012857,3.31523529 73.2595714,3.29511765 72.9742143,3.29511765 L70.547,3.29511765 L69.8218571,7.493 L69.8218571,7.48964706 Z M78.5638571,10.7822353 L80.3935,0.0930588235 L83.8278571,0.0930588235 L82.015,10.6648824 C81.9982143,10.7855882 81.9881429,10.8995882 81.9881429,11.0001765 C81.9948571,11.1510588 82.0217143,11.2918824 82.0552857,11.4192941 C82.1392143,11.6305294 82.2735,11.8048824 82.4581429,11.9423529 C82.6360714,12.0831765 82.8710714,12.1837647 83.1497143,12.2441176 C83.4317143,12.3111765 83.754,12.3447059 84.1098571,12.3447059 C84.4791429,12.3447059 84.8148571,12.3111765 85.1304286,12.2441176 C85.446,12.1703529 85.7212857,12.0630588 85.9596429,11.9155294 C86.1946429,11.768 86.3960714,11.5802353 86.5437857,11.3622941 C86.6915,11.141 86.7955714,10.8794706 86.8459286,10.5777059 L88.6487143,0.0930588235 L92.0830714,0.0930588235 L90.2198571,10.9465294 C90.1258571,11.5031176 89.9177143,12.053 89.6055,12.6062353 C89.2899286,13.1527647 88.8602143,13.6456471 88.3163571,14.0815294 C87.7725,14.5174118 87.1077857,14.8728235 86.3188571,15.1444118 C85.5332857,15.4126471 84.6167857,15.5534706 83.5760714,15.5534706 C82.6931429,15.5534706 81.9075714,15.4428235 81.2260714,15.2248824 C80.5445714,15.0035882 79.9839286,14.6884118 79.5475,14.2860588 C79.1110714,13.8837059 78.8089286,13.3941765 78.6343571,12.8241765 C78.5336429,12.4888824 78.4832857,12.1267647 78.4832857,11.7378235 C78.4832857,11.4293529 78.5101429,11.1108235 78.5571429,10.7788824 L78.5638571,10.7822353 Z M91.5828571,15.1008235 L94.1544286,0.0930588235 L98.1930714,0.0930588235 L100.385286,8.519 L105.478071,0.0897058824 L109.506643,0.0897058824 L106.941786,15.0974706 L103.507429,15.0974706 L105.102071,5.77629412 L101.365571,12.0764706 L98.183,12.0764706 L96.6185714,5.77294118 L95.0239286,15.1008235 L91.5828571,15.1008235 Z" id="Shape"/>            </g>            <polyline id="Shape" fill="#D31F36" points="197 26 197 55.4465914 155 69 155 39.5534086"/>            <polyline id="Shape" fill="#0047B8" points="190 0 190 28.3417085 148 42 148 13.6582915"/>            <g id="Group" transform="translate(150.000000, 10.000000)" fill="#FFFFFF">                <path d="M21.9933333,41.30025 L21.8466667,41.2174375 C21.3333333,41.34 20.53,41.3830625 19.2133333,41.3830625 C11.4566667,41.3830625 2.17,37.8254375 2.17,31.1275625 C2.17,24.2243125 11.7566667,19.64975 23.17,19.64975 C29.97,19.64975 36.26,20.9979375 40.21,23.6115 C43.7933333,25.6553125 44.7433333,28.4709375 44.7433333,31.130875 C44.6766667,34.3539375 42.3333333,37.0503125 39.5533333,39.379 L26.0933333,50.44275 L10.0666667,50.44275 L21.9933333,41.30025 Z M23.4533333,26.43375 C19.5033333,26.43375 15.9866667,28.0668125 15.9866667,30.475 C15.9866667,32.436 18.5533333,34.5990625 23.4533333,34.5990625 C27.9866667,34.5990625 30.92,32.720875 30.92,30.5975625 C30.92,27.8216875 26.9666667,26.43375 23.4533333,26.43375 Z M8.24333333,16.4399375 L2.16666667,10.229 L0.146666667,10.229 L0.146666667,17.84775 L1.49333333,17.84775 L1.49333333,11.2095 L8.01666667,17.854375 L9.59,17.854375 L9.59,10.2256875 L8.24333333,10.2256875 L8.24333333,16.4399375 Z M29.0333333,10.977625 L26.89,16.54925 L26.8566667,16.54925 L24.2233333,10.977625 L23.0633333,10.977625 L20.6133333,16.54925 L20.58,16.54925 L18.2733333,10.977625 L10.29,10.977625 L10.29,17.854375 L17.77,17.854375 L17.77,17.1090625 L11.7366667,17.1090625 L11.7366667,14.5915625 L16.0766667,14.5915625 L16.0766667,13.9025625 L11.7433333,13.9025625 L11.7433333,11.7163125 L17.11,11.7163125 L19.73,17.8510625 L21.1966667,17.8510625 L23.5566667,12.5179375 L26.0666667,17.8510625 L27.5133333,17.8510625 L30.2966667,10.9743125 L29.0333333,10.977625 Z M37.6133333,14.522 C37.0233333,14.223875 36.2666667,14.091375 35.5066667,13.992 L33.7733333,13.74025 C32.69,13.5911875 31.68,13.4189375 31.68,12.647125 C31.68,11.8951875 33.0633333,11.554 34.1566667,11.554 C35.39,11.554 36.7366667,12.01775 36.99,12.7696875 L38.3033333,12.5576875 C37.6833333,11.448 36.1366667,10.87825 34.1933333,10.87825 C32.1866667,10.87825 30.2666667,11.448 30.2666667,12.773 C30.2666667,13.2533125 30.6,13.7236875 31.2066667,14.045 C31.8133333,14.37625 32.5233333,14.48225 33.2966667,14.5915625 L35.2166667,14.873125 C36.23,15.0221875 37.19,15.30375 37.19,15.999375 C37.19,16.330625 36.9233333,16.6784375 36.4833333,16.8771875 C35.9433333,17.1289375 35.1,17.218375 34.41,17.218375 C32.79,17.218375 31.46,16.7778125 30.9866667,15.827125 L29.6866667,15.999375 C30.4633333,17.331 32.02,17.95375 34.3766667,17.95375 C35.42,17.95375 36.55,17.8311875 37.3933333,17.456875 C38.2333333,17.072625 38.6866667,16.5095 38.6866667,15.8900625 C38.6866667,15.3435 38.3333333,14.873125 37.6066667,14.522 L37.6133333,14.522 Z" id="Shape"/>                <g transform="translate(10.000000, 0.000000)" id="Shape">                    <path d="M0.02,0.848 L6.02,0.848 C6.95333333,0.848 7.9,0.894375 8.67,1.252125 C9.49666667,1.6330625 9.98333333,2.279 9.98333333,2.921625 C9.98333333,3.74975 9.16,4.452 7.90666667,4.6375 L7.90666667,4.6606875 C9.32333333,4.8263125 10.2933333,5.512 10.2933333,6.4560625 C10.2933333,7.1318125 9.91666667,7.890375 9.04,8.2945 C8.09,8.73175 6.76666667,8.7416875 5.65666667,8.7416875 L0.0333333333,8.7416875 L0.0333333333,0.848 L0.02,0.848 Z M5.1,6.989375 C5.48,6.989375 5.89333333,6.9993125 6.2,6.837 C6.46666667,6.711125 6.64333333,6.50575 6.64333333,6.2838125 C6.64333333,6.0188125 6.41,5.777 6.05333333,5.6610625 C5.73,5.5550625 5.3,5.5550625 4.96,5.5550625 L3.47333333,5.5550625 L3.47333333,6.9794375 L5.10666667,6.9794375 L5.1,6.989375 Z M4.99666667,3.875625 C5.35333333,3.875625 5.78333333,3.8921875 6.05,3.729875 C6.28333333,3.597375 6.40666667,3.398625 6.40666667,3.213125 C6.40666667,2.6268125 5.65333333,2.544 4.94,2.544 L3.46666667,2.544 L3.46666667,3.8789375 L5,3.8789375 L4.99666667,3.875625 Z M16.8333333,8.745 C16.74,8.48 16.7,8.2050625 16.7,7.930125 C15.9866667,8.6091875 14.9666667,8.857625 13.7133333,8.857625 C12.0133333,8.857625 10.5266667,8.261375 10.5266667,7.08875 C10.5266667,6.154625 11.66,5.531875 12.9266667,5.280125 C14.0933333,5.04825 15.3266667,4.9588125 16.5266667,4.91575 L16.5266667,4.869375 C16.5266667,4.339375 16.3133333,4.1306875 15.4533333,4.1306875 C14.7533333,4.1306875 14.1666667,4.2963125 14.06,4.7865625 L10.8,4.5878125 C11.3333333,3.1303125 13.5,2.749375 15.5666667,2.749375 C16.6333333,2.749375 18.0166667,2.842125 18.9133333,3.2561875 C20.1133333,3.796125 19.97,4.558 19.97,5.3960625 L19.97,7.4498125 C19.97,7.890375 19.9933333,8.327625 20.26,8.7416875 L16.8333333,8.7416875 L16.8333333,8.745 Z M16.5233333,5.9923125 C15.6633333,6.0519375 14.2333333,6.2241875 14.2333333,6.936375 C14.2333333,7.3173125 14.61,7.4763125 15.1666667,7.4763125 C16.5066667,7.4763125 16.5233333,6.7475625 16.5233333,6.1049375 L16.5233333,5.995625 L16.5233333,5.9923125 Z"/>                    <path d="M25.7333333,9.109375 C25.0533333,10.328375 24.1333333,10.13625 22.11,10.248875 L20.29,10.2720625 L20.29,9.162375 L21.58,9.162375 C22.0633333,9.162375 23.1366667,9.1789375 23.1366667,8.7151875 C23.1366667,8.5429375 22.9966667,8.3508125 22.9033333,8.1851875 L19.7033333,2.8653125 L23.55,2.8653125 L25.05,5.9989375 L26.65,2.8653125 L29.26,2.8653125 L25.7333333,9.109375 Z"/>                </g>            </g>        </g>    </g></svg>