<?xml version="1.0" encoding="UTF-8"?>
<svg viewBox="0 0 135 54" version="1.1" xmlns="http://www.w3.org/2000/svg" xmlns:xlink="http://www.w3.org/1999/xlink">        <title>Slice 1</title>    <desc>Created with Sketch.</desc>    <g id="Page-1" stroke="none" stroke-width="1" fill="none" fill-rule="evenodd">        <g id="logo-spectrum-news-gray">            <path d="M25.96,8.05 C26.1514953,8.0004145 26.3292749,7.90810588 26.48,7.78 C26.6162162,7.65758472 26.7193921,7.50282086 26.78,7.33 C26.8548368,7.12262566 26.9084446,6.9081947 26.94,6.69 L27.18,5.34 C27.1900128,5.20017903 27.1900128,5.05982097 27.18,4.92 C27.1844793,4.85340857 27.1844793,4.78659143 27.18,4.72 C27.1615951,4.5732791 27.0905212,4.43823868 26.98,4.34 C26.8526955,4.23890532 26.7008772,4.1733474 26.54,4.15 C26.3120252,4.11216473 26.0810478,4.09542724 25.85,4.1 L23.53,4.1 L22.84,8.1 L25.14,8.1 C25.4143435,8.11931586 25.6900358,8.10250535 25.96,8.05 Z" id="Shape"/>            <path d="M70.53,8.05 C70.7270566,7.99916868 70.911101,7.90714646 71.07,7.78 C71.2099243,7.6566686 71.3194424,7.50265882 71.39,7.33 C71.470834,7.12383008 71.5278698,6.90910687 71.56,6.69 L71.8,5.34 C71.8104303,5.20353234 71.8104303,5.06646766 71.8,4.93 C71.8072198,4.85684437 71.8072198,4.78315563 71.8,4.71 C71.7834322,4.5627079 71.7120321,4.42704771 71.6,4.33 C71.4680121,4.23044212 71.3133998,4.16516134 71.15,4.14 C70.9185822,4.10285731 70.6843476,4.08612626 70.45,4.09 L68.11,4.09 L67.42,8.09 L69.7,8.09 C69.9772233,8.11314331 70.256287,8.09969446 70.53,8.05 Z" id="Shape"/>            <polygon id="Shape" fill="#001029" fill-rule="nonzero" points="11.76 31.95 18.69 53.48 28.7 53.48 34.83 18.68 26.86 18.68 23.07 40.26 16.09 18.68 6.13 18.68 0 53.48 7.97 53.48"/>            <polygon id="Shape" fill="#001029" fill-rule="nonzero" points="33.02 53.48 55.09 53.48 56.44 46.08 42.58 46.08 43.83 39.11 56.59 39.11 57.93 31.71 45.13 31.71 46.12 26.09 60.03 26.09 61.37 18.68 39.15 18.68"/>            <polygon id="Shape" fill="#001029" fill-rule="nonzero" points="91.09 42.35 90.1 18.68 84.07 18.68 73.21 42.35 72.31 18.68 63.89 18.68 65.43 53.48 75.25 53.48 84.17 33.9 85.02 53.48 94.58 53.48 110.48 18.68 101.96 18.68"/>            <path d="M109.4,30.11 C109.33,30.57 109.27,31 109.23,31.38 C109.182943,31.7514715 109.159563,32.1255601 109.16,32.5 C108.995326,34.5895399 109.955405,36.6087539 111.68,37.8 C113.353333,38.9133333 116,39.47 119.62,39.47 L120.12,39.47 C121.156776,39.3794605 122.197799,39.5876652 123.12,40.07 C123.677761,40.4901599 123.986088,41.1632164 123.94,41.86 C123.939969,42.3594973 123.896471,42.8580445 123.81,43.35 C123.728953,43.8482266 123.526305,44.3187823 123.22,44.72 C122.851979,45.1734082 122.368258,45.5189235 121.82,45.72 C120.996788,46.0001588 120.128849,46.1256031 119.26,46.09 L106.95,46.09 L105.65,53.5 L118.06,53.5 C122.18,53.5 125.303333,52.7133333 127.43,51.14 C129.556667,49.5666667 130.923333,47.0666667 131.53,43.64 L131.83,42 C131.9,41.54 131.96,41.1 132,40.68 C132.052075,40.292154 132.078798,39.9013245 132.08,39.51 C132.238354,37.4437139 131.276454,35.4512064 129.56,34.29 C127.886667,33.19 125.24,32.6433333 121.62,32.65 L121.12,32.65 C120.084336,32.7408239 119.044139,32.5362518 118.12,32.06 C117.548454,31.6696154 117.21938,31.0114679 117.25,30.32 C117.244036,29.7355789 117.301032,29.1522151 117.42,28.58 C117.520298,28.0817344 117.751566,27.6191977 118.09,27.24 C118.480903,26.8374226 118.970509,26.5443488 119.51,26.39 C120.296875,26.1683015 121.112809,26.0671527 121.93,26.09 L133.69,26.09 L134.98,18.68 L123.2,18.68 C119.113333,18.68 116,19.4666667 113.86,21.04 C111.72,22.6133333 110.333333,25.1066667 109.7,28.52 L109.4,30.11 Z" id="Shape" fill="#001029" fill-rule="nonzero"/>            <path d="M14.01,15.24 C14.6016827,15.0994107 15.1614923,14.8483445 15.66,14.5 C16.1227348,14.1689002 16.5054354,13.7383621 16.78,13.24 C17.0891195,12.6660921 17.2987536,12.0439521 17.4,11.4 L17.51,10.72 C17.5712401,10.3900498 17.6046908,10.0555433 17.61,9.72 C17.6116715,9.45456302 17.5848513,9.18971316 17.53,8.93 C17.4421816,8.45882911 17.2117984,8.02598795 16.87,7.69 C16.495965,7.32798011 16.0341697,7.06951259 15.53,6.94 C14.8450139,6.78110185 14.1430584,6.7072118 13.44,6.72 L13.11,6.72 C12.8277405,6.72905985 12.545475,6.70217742 12.27,6.64 C12.0911214,6.60522873 11.9251442,6.52224013 11.79,6.4 C11.6788152,6.29400433 11.6080856,6.15254526 11.59,6 C11.5592059,5.81124773 11.5592059,5.61875227 11.59,5.43 C11.6246946,5.23725792 11.6714532,5.04688362 11.73,4.86 C11.7858819,4.69835962 11.8822865,4.55375268 12.01,4.44 C12.1600666,4.31302568 12.3383806,4.22386867 12.53,4.18 C12.8253772,4.11446396 13.1274944,4.08425223 13.43,4.09 L18.21,4.09 L18.74,1 L13.93,1 C13.1896241,0.989999463 12.4508047,1.07059795 11.73,1.24 C11.1425956,1.37893953 10.5863636,1.62653061 10.09,1.97 C9.62472149,2.30240487 9.24162244,2.73681183 8.97,3.24 C8.6663083,3.80472847 8.46008024,4.41665109 8.36,5.05 L8.25,5.69 C8.18847758,6.01990994 8.15502455,6.35444027 8.15,6.69 C8.14890625,6.94830384 8.1723448,7.20612788 8.22,7.46 C8.30903765,7.9307432 8.53923729,8.36323949 8.88,8.7 C9.26523575,9.04692305 9.73379894,9.28809528 10.24,9.4 C10.9250198,9.55869783 11.6269504,9.63258527 12.33,9.62 L12.65,9.62 C12.9644992,9.60837758 13.2787519,9.6489263 13.58,9.74 C13.7671302,9.79307502 13.9320294,9.90534683 14.05,10.06 C14.149595,10.2071017 14.1987257,10.3825684 14.19,10.56 C14.1809621,10.771343 14.1575749,10.9818278 14.12,11.19 C14.0933232,11.3487191 14.0462676,11.5033303 13.98,11.65 C13.911263,11.7956976 13.8083433,11.9226318 13.68,12.02 C13.5177084,12.13721 13.3343736,12.2220872 13.14,12.27 C12.8624005,12.3411249 12.5765268,12.3747571 12.29,12.37 L7.29,12.37 L6.77,15.46 L11.77,15.46 C12.5229049,15.4799555 13.2753638,15.4060533 14.01,15.24 Z" id="Shape" fill="#001029" fill-rule="nonzero"/>            <path d="M21.58,15.48 L22.31,11.24 L24.61,11.24 C25.9634155,11.3198353 27.3074349,10.9698303 28.45,10.24 C29.4199987,9.46827612 30.0425667,8.34189583 30.18,7.11 L30.53,5.24 C30.5934095,4.88342086 30.6268597,4.52215962 30.63,4.16 C30.6385028,3.85021903 30.6048615,3.54071964 30.53,3.24 C30.4183776,2.74706447 30.16863,2.29613129 29.81,1.94 C29.4219435,1.59154786 28.9497498,1.350281 28.44,1.24 C27.8161203,1.07915252 27.1742791,0.998502313 26.53,1 L20.75,1 L18.27,15.48 L21.58,15.48 Z M23.53,4.09 L25.89,4.09 C26.1210478,4.08542724 26.3520252,4.10216473 26.58,4.14 C26.7408772,4.1633474 26.8926955,4.22890532 27.02,4.33 C27.1305212,4.42823868 27.2015951,4.5632791 27.22,4.71 C27.2244793,4.77659143 27.2244793,4.84340857 27.22,4.91 C27.2300128,5.04982097 27.2300128,5.19017903 27.22,5.33 L26.98,6.68 C26.9484446,6.8981947 26.8948368,7.11262566 26.82,7.32 C26.7593921,7.49282086 26.6562162,7.64758472 26.52,7.77 C26.3692749,7.89810588 26.1914953,7.9904145 26,8.04 C25.7318139,8.10593004 25.4561018,8.13619112 25.18,8.13 L22.88,8.13 L23.53,4.09 Z" id="Shape" fill="#001029" fill-rule="nonzero"/>            <polygon id="Shape" fill="#001029" fill-rule="nonzero" points="39.4 15.48 39.93 12.39 33.97 12.39 34.46 9.52 39.95 9.52 40.48 6.43 34.98 6.43 35.38 4.09 41.34 4.09 41.87 1 32.59 1 30.12 15.48"/>            <path d="M41.53,12.24 C41.5375865,12.4850474 41.5643348,12.7291256 41.61,12.97 C41.6910962,13.4379973 41.8946607,13.8761786 42.2,14.24 C42.562461,14.6449396 43.0193213,14.9540932 43.53,15.14 C44.2396471,15.3876445 44.9887325,15.5028884 45.74,15.48 L49.89,15.48 L50.42,12.39 L46.63,12.39 C46.2917193,12.4034014 45.9536104,12.3594473 45.63,12.26 C45.4309331,12.1982871 45.2561222,12.0759195 45.13,11.91 C45.0280145,11.7598138 44.9755652,11.5814863 44.98,11.4 C44.9822755,11.1953116 45.0023512,10.9912091 45.04,10.79 L45.9,5.79 C45.9371356,5.57714373 45.9872288,5.36675255 46.05,5.16 C46.1166848,4.95686738 46.229655,4.77200694 46.38,4.62 C46.5585108,4.44725538 46.7739311,4.31731937 47.01,4.24 C47.3534489,4.13637069 47.7114234,4.08909104 48.07,4.1 L51.86,4.1 L52.39,1.01 L48.23,1.01 C47.4399265,0.994522625 46.6527055,1.10939608 45.9,1.35 C45.303879,1.54474466 44.7481633,1.84632208 44.26,2.24 C43.8497205,2.5848797 43.5101322,3.00596923 43.26,3.48 C43.02105,3.91310498 42.8554765,4.38279285 42.77,4.87 L41.53,11.63 C41.5124485,11.8329546 41.5124485,12.0370454 41.53,12.24 Z" id="Shape" fill="#001029" fill-rule="nonzero"/>            <polygon id="Shape" fill="#001029" fill-rule="nonzero" points="54.72 15.48 58.03 15.48 59.98 4.09 63.64 4.09 64.17 1 53.53 1 53 4.09 56.66 4.09"/>            <path d="M66.2,15.48 L66.93,11.24 L69.02,11.24 L70.64,15.49 L74.21,15.49 L72.31,10.67 C73.7083345,9.98323351 74.6507446,8.62071284 74.8,7.07 L75.12,5.2 C75.1833134,4.82995232 75.2167546,4.45541089 75.22,4.08 C75.2218312,3.83204772 75.2017531,3.58441842 75.16,3.34 C75.087068,2.85469642 74.8712232,2.40211858 74.54,2.04 C74.1773051,1.66277 73.7222434,1.38697499 73.22,1.24 C72.5429226,1.05303024 71.8422676,0.965448364 71.14,0.98 L65.4,0.98 L62.93,15.48 L66.2,15.48 Z M68.2,4.09 L70.53,4.09 C70.7643476,4.08612626 70.9985822,4.10285731 71.23,4.14 C71.3933998,4.16516134 71.5480121,4.23044212 71.68,4.33 C71.7920321,4.42704771 71.8634322,4.5627079 71.88,4.71 C71.8872198,4.78315563 71.8872198,4.85684437 71.88,4.93 C71.8904303,5.06646766 71.8904303,5.20353234 71.88,5.34 L71.64,6.69 C71.6078698,6.90910687 71.550834,7.12383008 71.47,7.33 C71.3994424,7.50265882 71.2899243,7.6566686 71.15,7.78 C70.991101,7.90714646 70.8070566,7.99916868 70.61,8.05 C70.3417535,8.11558831 70.0660867,8.14584443 69.79,8.14 L67.51,8.14 L68.2,4.09 Z" id="Shape" fill="#001029" fill-rule="nonzero"/>            <path d="M76.84,14.7 C77.307979,15.1144458 77.8608779,15.4216119 78.46,15.6 C79.1921442,15.8233837 79.9546199,15.9313448 80.72,15.92 C81.6154863,15.936486 82.5075308,15.8047067 83.36,15.53 C84.0517672,15.3072155 84.7009082,14.9691213 85.28,14.53 C85.7854332,14.1269546 86.2096314,13.6314911 86.53,13.07 C86.8181154,12.5749881 87.0177683,12.0335565 87.12,11.47 L88.91,1 L85.6,1 L83.87,11.12 C83.8233645,11.3912785 83.7212335,11.6500102 83.57,11.88 C83.4187925,12.0969697 83.2248203,12.2807328 83,12.42 C82.7528408,12.567949 82.4823157,12.6727775 82.2,12.73 C81.8714723,12.8007341 81.5360289,12.8342784 81.2,12.83 C80.8909351,12.8344381 80.5823454,12.80425 80.28,12.74 C80.0391157,12.6903878 79.8110393,12.5916681 79.61,12.45 C79.4371181,12.3198874 79.3052267,12.1428753 79.23,11.94 C79.1889266,11.8069613 79.1653945,11.6691303 79.16,11.53 C79.1514257,11.4201671 79.1514257,11.3098329 79.16,11.2 L80.9,1 L77.59,1 L75.83,11.32 C75.7846661,11.6245948 75.7612726,11.9320528 75.76,12.24 C75.7593215,12.5782644 75.8064543,12.914927 75.9,13.24 C76.0732535,13.8037822 76.3984873,14.3089326 76.84,14.7 Z" id="Shape" fill="#001029" fill-rule="nonzero"/>            <polygon id="Shape" fill="#001029" fill-rule="nonzero" points="91.74 15.48 93.28 6.49 94.79 12.56 97.85 12.56 101.46 6.49 99.92 15.48 103.23 15.48 105.71 1 101.82 1 96.91 9.13 94.8 1 90.91 1 88.43 15.48"/>        </g>    </g></svg>