<?xml version="1.0" encoding="UTF-8"?>
<svg viewBox="0 0 196 69" version="1.1" xmlns="http://www.w3.org/2000/svg" xmlns:xlink="http://www.w3.org/1999/xlink">        <title>News13</title>    <desc>Created with Sketch.</desc>    <defs/>    <g id="Page-1" stroke="none" stroke-width="1" fill="none" fill-rule="evenodd">        <g id="News13" fill-rule="nonzero">            <g id="Group" transform="translate(0.000000, 8.000000)" fill="#001029">                <path d="M23.7333333,40.667 L27.6266667,18.3464706 L35.8266667,18.3464706 L29.5266667,54.3570588 L19.2166667,54.3570588 L12.1,32.0734118 L8.2,54.3570588 L0,54.3570588 L6.30666667,18.3464706 L16.5533333,18.3464706 M43.8,46.6855294 L58.0533333,46.6855294 L56.6666667,54.3570588 L33.9666667,54.3570588 L40.2666667,18.3464706 L63.1266667,18.3464706 L61.7433333,26.0079412 L47.4433333,26.0079412 L46.4166667,31.8219412 L59.59,31.8219412 L58.21,39.4800588 L45.09,39.4800588 M113.633333,18.3464706 L97.29,54.3570588 L87.45,54.3570588 L86.5766667,34.0851765 L77.4,54.3537059 L67.3066667,54.3537059 L65.7166667,18.3431176 L74.3833333,18.3431176 L75.3,42.8262941 L86.4733333,18.3397647 L92.6733333,18.3397647 L93.7066667,42.8229412 L104.873333,18.3364118 M125.31,46.3032941 C125.943333,46.0451176 126.423333,45.6997647 126.75,45.2739412 C127.073333,44.8481176 127.276667,44.3787059 127.363333,43.8657059 C127.45,43.3527059 127.49,42.833 127.49,42.3233529 C127.49,41.4951765 127.206667,40.8815882 126.643333,40.4658235 C126.076667,40.0567647 125.043333,39.8488824 123.543333,39.8488824 L123.03,39.8488824 C119.306667,39.8488824 116.583333,39.2788824 114.856667,38.1254706 C113.13,36.9787647 112.266667,35.1547647 112.266667,32.6467647 C112.273333,32.2678824 112.293333,31.8856471 112.346667,31.49 C112.396667,31.0943529 112.453333,30.6517647 112.526667,30.1756471 L112.833333,28.5327059 C113.483333,24.9953529 114.906667,22.4169412 117.113333,20.7874118 C119.313333,19.1578824 122.523333,18.3397647 126.723333,18.3397647 L138.923333,18.3397647 L137.59,26.0045882 L125.49,26.0045882 C124.466667,26.0045882 123.64,26.1051765 123.006667,26.3130588 C122.373333,26.5142353 121.886667,26.816 121.546667,27.1848235 C121.203333,27.5637059 120.973333,28.0230588 120.853333,28.5762941 C120.733333,29.1295294 120.673333,29.7297059 120.673333,30.3801765 C120.673333,31.1681176 120.973333,31.7682941 121.573333,32.1807059 C122.173333,32.5931176 123.186667,32.7976471 124.62,32.7976471 L125.133333,32.7976471 C128.856667,32.7976471 131.583333,33.3575882 133.306667,34.4942353 C135.03,35.6241765 135.893333,37.4247059 135.893333,39.8924706 C135.893333,40.2713529 135.87,40.6737059 135.813333,41.0995294 C135.763333,41.5354118 135.703333,41.9847059 135.633333,42.4675294 L135.333333,44.1674706 C134.683333,47.7014706 133.266667,50.2832353 131.08,51.9127647 C128.893333,53.5422941 125.68,54.3604118 121.446667,54.3604118 L108.68,54.3604118 L110.013333,46.6922353 L122.68,46.6922353 C123.8,46.6922353 124.68,46.5581176 125.313333,46.3066471" id="Shape"/>                <path d="M6.84333333,15.1008235 L7.37666667,11.8987647 L12.5,11.8987647 C12.86,11.8987647 13.1533333,11.8652353 13.38,11.7981765 C13.6133333,11.7311176 13.7933333,11.6439412 13.93,11.5366471 C14.0633333,11.426 14.1633333,11.3019412 14.23,11.1477059 C14.2966667,10.9968235 14.3466667,10.8392353 14.3733333,10.6715882 C14.4133333,10.4368824 14.44,10.2155882 14.44,10.0144118 C14.44,9.81323529 14.3966667,9.64558824 14.3,9.49805882 C14.21,9.35723529 14.0466667,9.24658824 13.8233333,9.16276471 C13.5966667,9.08564706 13.28,9.04541176 12.87,9.04541176 L12.5366667,9.04541176 C11.6933333,9.04541176 10.97,8.96829412 10.38,8.81741176 C9.78666667,8.66652941 9.32,8.42176471 8.98,8.08982353 C8.63333333,7.75452941 8.40666667,7.32535294 8.3,6.79894118 C8.25,6.55417647 8.22666667,6.28594118 8.22666667,5.99423529 C8.22666667,5.67570588 8.26,5.32364706 8.32666667,4.93805882 L8.43666667,4.26747059 C8.57,3.54658824 8.78,2.92629412 9.07,2.38982353 C9.37,1.86341176 9.75,1.43088235 10.2233333,1.08888235 C10.6966667,0.753588235 11.2633333,0.495411765 11.9233333,0.331117647 C12.5766667,0.163470588 13.33,0.0796470588 14.19,0.0796470588 L19.1566667,0.0796470588 L18.6033333,3.28505882 L13.6766667,3.28505882 C13.2933333,3.28505882 12.9833333,3.31858824 12.75,3.37894118 C12.5166667,3.43929412 12.33,3.52982353 12.2,3.64717647 C12.0666667,3.76452941 11.9733333,3.90870588 11.9166667,4.08305882 C11.86,4.25070588 11.81,4.45188235 11.77,4.67317647 C11.73,4.89782353 11.7233333,5.09229412 11.7466667,5.25994118 C11.77,5.42758824 11.8366667,5.56170588 11.9466667,5.67570588 C12.06,5.78970588 12.2233333,5.87688235 12.4466667,5.93052941 C12.6633333,5.98752941 12.9466667,6.01770588 13.3066667,6.01770588 L13.6533333,6.01770588 C14.4933333,6.01770588 15.21,6.09482353 15.8033333,6.24570588 C16.39,6.39323529 16.86,6.638 17.2033333,6.96994118 C17.5533333,7.30523529 17.78,7.73441176 17.8866667,8.26082353 C17.94,8.50558824 17.9666667,8.78052941 17.9666667,9.08229412 C17.9666667,9.40417647 17.9333333,9.75288235 17.8666667,10.1384706 L17.7533333,10.8425882 C17.6266667,11.5735294 17.4133333,12.2072353 17.12,12.7437059 C16.82,13.2801765 16.4366667,13.7227647 15.96,14.0681176 C15.4866667,14.4134706 14.92,14.6716471 14.26,14.8392941 C13.6033333,15.0069412 12.85,15.0907647 12,15.0907647 L6.84333333,15.0907647 L6.84333333,15.1008235 Z M18.6533333,15.1008235 L21.2066667,0.0930588235 L27.1233333,0.0930588235 C27.8833333,0.0930588235 28.55,0.170176471 29.1233333,0.327764706 C29.7,0.478647059 30.1666667,0.730117647 30.5233333,1.08217647 C30.89,1.43758824 31.1366667,1.88688235 31.27,2.43341176 C31.3366667,2.70835294 31.37,3.01011765 31.3633333,3.33870588 C31.3633333,3.68405882 31.33,4.05623529 31.2633333,4.45523529 L30.93,6.39323529 C30.6833333,7.86852941 30.0866667,8.94817647 29.1433333,9.64558824 C28.2033333,10.3396471 26.8833333,10.685 25.19,10.6984118 L22.8166667,10.6984118 L22.0666667,15.1008235 L18.65,15.1008235 L18.6533333,15.1008235 Z M23.36,7.48964706 L25.7266667,7.48964706 C26.0733333,7.48964706 26.36,7.45611765 26.5766667,7.39576471 C26.8,7.32870588 26.9766667,7.24152941 27.1166667,7.11747059 C27.25,7.00011765 27.36,6.84252941 27.43,6.65476471 C27.4966667,6.467 27.5533333,6.24570588 27.5966667,5.99423529 L27.8366667,4.59270588 C27.8633333,4.42505882 27.8766667,4.27752941 27.8766667,4.15682353 C27.8766667,4.06964706 27.8766667,3.99923529 27.8666667,3.94558824 C27.84,3.77794118 27.7733333,3.64382353 27.6666667,3.55329412 C27.5566667,3.45941176 27.4066667,3.39235294 27.2166667,3.35211765 C27.0233333,3.31858824 26.7833333,3.29847059 26.5033333,3.29847059 L24.07,3.29847059 L23.3666667,7.493 L23.36,7.48964706 Z M30.86,15.1008235 L33.4033333,0.0930588235 L42.9633333,0.0930588235 L42.42,3.29511765 L36.2866667,3.29511765 L35.8733333,5.726 L41.54,5.726 L40.9933333,8.92805882 L35.3333333,8.92805882 L34.8333333,11.8987647 L40.9666667,11.8987647 L40.4266667,15.1008235 L30.86,15.1008235 Z M42.6666667,11.1108235 L43.8666667,4.07970588 C43.9433333,3.59688235 44.11,3.12076471 44.3666667,2.64464706 C44.6166667,2.17523529 44.9666667,1.73935294 45.4233333,1.36382353 C45.8766667,0.984941176 46.4433333,0.676470588 47.1233333,0.441764706 C47.7966667,0.207058824 48.5966667,0.0897058824 49.5166667,0.0897058824 L53.7966667,0.0897058824 L53.25,3.29176471 L49.3433333,3.29176471 C48.8933333,3.29176471 48.53,3.33870588 48.2533333,3.43258824 C47.9766667,3.52647059 47.76,3.65388235 47.6033333,3.81482353 C47.4466667,3.97576471 47.3366667,4.16017647 47.27,4.36805882 C47.2033333,4.57929412 47.1466667,4.79723529 47.1033333,5.02188235 L46.2133333,10.2357059 C46.1733333,10.457 46.1533333,10.6648824 46.1533333,10.8660588 C46.1533333,11.0672353 46.2066667,11.2415882 46.31,11.3958235 C46.41,11.5500588 46.5866667,11.6707647 46.83,11.7646471 C47.0733333,11.8518235 47.42,11.8987647 47.87,11.8987647 L51.7766667,11.8987647 L51.23,15.1041765 L46.95,15.1041765 C46.03,15.1041765 45.2733333,14.9868235 44.6833333,14.7521176 C44.0833333,14.5174118 43.63,14.2089412 43.3066667,13.8267059 C42.9833333,13.4578824 42.7733333,13.0287059 42.6833333,12.5525882 C42.6366667,12.3011176 42.61,12.0496471 42.6033333,11.7981765 C42.6033333,11.5701765 42.62,11.3421765 42.66,11.1175294 L42.6666667,11.1108235 Z M54.4333333,3.29176471 L54.98,0.0930588235 L65.94,0.0930588235 L65.3966667,3.29511765 L61.62,3.29511765 L59.6133333,15.1041765 L56.2033333,15.1041765 L58.21,3.30182353 L54.4333333,3.30182353 L54.4333333,3.29176471 Z M64.66,15.1008235 L67.2133333,0.0930588235 L73.12,0.0930588235 C73.9666667,0.0930588235 74.68,0.183588235 75.2633333,0.361294118 C75.84,0.539 76.2966667,0.807235294 76.63,1.166 C76.9633333,1.51805882 77.1766667,1.97070588 77.27,2.51388235 C77.31,2.74858824 77.33,3.00676471 77.33,3.27835294 C77.33,3.63711765 77.2966667,4.02270588 77.23,4.43847059 L76.8966667,6.38317647 C76.5966667,8.19376471 75.74,9.43435294 74.33,10.1049412 L76.2833333,15.1008235 L72.6066667,15.1008235 L70.9333333,10.7017647 L68.7766667,10.7017647 L68.0266667,15.1041765 L64.66,15.1041765 L64.66,15.1008235 Z M69.3266667,7.48964706 L71.6766667,7.48964706 C72.01,7.48964706 72.2933333,7.45611765 72.52,7.39576471 C72.7466667,7.32870588 72.93,7.24152941 73.0733333,7.11747059 C73.2166667,7.00011765 73.33,6.84252941 73.4066667,6.65476471 C73.4833333,6.467 73.54,6.24570588 73.5833333,5.99423529 L73.8266667,4.59270588 C73.8533333,4.43176471 73.8666667,4.29094118 73.8666667,4.17358824 C73.8666667,4.08976471 73.86,4.01264706 73.8466667,3.93888235 C73.82,3.77123529 73.7466667,3.64382353 73.64,3.54994118 C73.53,3.45605882 73.3733333,3.389 73.1733333,3.34876471 C72.98,3.31523529 72.74,3.29511765 72.4566667,3.29511765 L70.0466667,3.29511765 L69.3266667,7.493 L69.3266667,7.48964706 Z M78.0066667,10.7822353 L79.8233333,0.0930588235 L83.2333333,0.0930588235 L81.4333333,10.6648824 C81.4166667,10.7855882 81.4066667,10.8995882 81.4066667,11.0001765 C81.4133333,11.1510588 81.44,11.2918824 81.4733333,11.4192941 C81.5566667,11.6305294 81.69,11.8048824 81.8733333,11.9423529 C82.05,12.0831765 82.2833333,12.1837647 82.56,12.2441176 C82.84,12.3111765 83.16,12.3447059 83.5133333,12.3447059 C83.88,12.3447059 84.2133333,12.3111765 84.5266667,12.2441176 C84.84,12.1703529 85.1133333,12.0630588 85.35,11.9155294 C85.5833333,11.768 85.7833333,11.5802353 85.93,11.3622941 C86.0766667,11.141 86.18,10.8794706 86.23,10.5777059 L88.02,0.0930588235 L91.43,0.0930588235 L89.58,10.9465294 C89.4866667,11.5031176 89.28,12.053 88.97,12.6062353 C88.6566667,13.1527647 88.23,13.6456471 87.69,14.0815294 C87.15,14.5174118 86.49,14.8728235 85.7066667,15.1444118 C84.9266667,15.4126471 84.0166667,15.5534706 82.9833333,15.5534706 C82.1066667,15.5534706 81.3266667,15.4428235 80.65,15.2248824 C79.9733333,15.0035882 79.4166667,14.6884118 78.9833333,14.2860588 C78.55,13.8837059 78.25,13.3941765 78.0766667,12.8241765 C77.9766667,12.4888824 77.9266667,12.1267647 77.9266667,11.7378235 C77.9266667,11.4293529 77.9533333,11.1108235 78,10.7788824 L78.0066667,10.7822353 Z M90.9333333,15.1008235 L93.4866667,0.0930588235 L97.4966667,0.0930588235 L99.6733333,8.519 L104.73,0.0897058824 L108.73,0.0897058824 L106.183333,15.0974706 L102.773333,15.0974706 L104.356667,5.77629412 L100.646667,12.0764706 L97.4866667,12.0764706 L95.9333333,5.77294118 L94.35,15.1008235 L90.9333333,15.1008235 Z" id="Shape"/>            </g>            <polyline id="Shape" fill="#D31F36" points="196 26 196 55.4488676 154 69 154 39.5511324"/>            <polyline id="Shape" fill="#0047B8" points="189 0 189 28.3417085 147 42 147 13.6582915"/>            <g id="Group" transform="translate(148.000000, 15.000000)" fill="#FFFFFF">                <path d="M46.9666667,32.8807143 C46.98,29.5571429 45.1233333,27.422 42.9733333,26.3107857 C42.6166667,26.1227857 42.2533333,25.9582857 41.8966667,25.8172857 C44.63,24.3938571 46.3133333,21.923 46.33,19.2037143 L46.33,19.1365714 L46.33,19.1231429 C46.33,16.8067143 45.1433333,14.6749286 42.9166667,13.1474286 C42.77,13.0366429 42.6233333,12.9325714 42.4633333,12.8285 C40.1966667,11.3312143 36.8866667,10.4617143 32.6966667,10.4617143 C29.0166667,10.4617143 25.6466667,11.1499286 23.1366667,12.6875 C20.6233333,14.2250714 19.05,16.6153571 18.9366667,19.8147143 L18.92,20.3585714 L29.0266667,20.3585714 L29.0466667,19.8482857 C29.1133333,18.5054286 29.66,17.834 30.2733333,17.4546429 C30.8933333,17.0719286 31.7066667,16.9510714 32.3733333,16.9510714 C33.4933333,16.9577857 34.3566667,17.2297143 34.9566667,17.6896429 C35.5566667,18.1596429 35.9233333,18.8310714 35.9233333,19.7375 C35.93,19.8885714 35.9233333,20.6170714 35.5033333,21.3321429 C35.07,22.0438571 34.33,22.7253571 32.6133333,22.9637143 C31.6633333,23.098 30.7466667,23.1315714 29.9233333,23.1315714 C29.21,23.1315714 28.5633333,23.1047143 28.0166667,23.0845714 L27.29,23.0577143 L27.29,29.4597857 L28.0466667,29.4094286 C28.6133333,29.3691429 29.5,29.3255 30.47,29.3255 C31.3633333,29.3255 32.9233333,29.3355714 34.17,29.7552143 C35.4033333,30.1916429 36.3466667,30.8630714 36.38,32.5819286 C36.38,33.4212143 36.1233333,34.2873571 35.5033333,34.8983571 C34.88,35.5160714 33.9266667,35.9558571 32.1866667,35.9625714 C30.63,35.9558571 29.7666667,35.6033571 29.1966667,35.0897143 C28.63,34.566 28.3466667,33.7905 28.31,32.9008571 L28.2866667,32.3972857 L18.12,32.3972857 L18.1533333,32.9478571 C18.2466667,34.3041429 18.3866667,36.6407143 20.7,38.89 C23.2333333,41.4246429 26.98,42.509 32.2766667,42.4955714 L32.3766667,42.4955714 C38.63,42.4955714 41.4233333,40.9647143 43.0033333,39.8535 L43.08,39.7964286 L43.12,39.7729286 C46.0766667,37.8660714 46.93,35.2340714 46.9466667,33.0317857 L46.9466667,32.9142857 C46.9533333,32.8907857 46.9466667,32.8807143 46.9466667,32.8807143 L46.9666667,32.8807143 Z M6.81333333,42.1867143 L16.5466667,42.1867143 L16.54,10.7403571 L8.31666667,10.7403571 C6,12.6203571 4.25,13.7013571 2.26666667,14.5406429 L2.26666667,21.5 C3.81666667,20.8185 5.5,19.9288571 6.80666667,18.9082857 L6.81333333,42.1867143 Z" id="Shape"/>                <path d="M8.41,6.52714286 L2.33333333,0.2325 L0.313333333,0.2325 L0.313333333,7.95392857 L1.65666667,7.95392857 L1.65666667,1.22285714 L8.18333333,7.95728571 L9.75666667,7.95728571 L9.75666667,0.235857143 L8.41,0.235857143 L8.41,6.52714286 Z M29.2,0.987857143 L27.0533333,6.63792857 L27.02,6.63792857 L24.3866667,0.991214286 L23.23,0.991214286 L20.78,6.64128571 L20.7466667,6.64128571 L18.4366667,0.994571429 L10.4533333,0.994571429 L10.4533333,7.964 L17.9333333,7.964 L17.9333333,7.21535714 L11.9,7.21535714 L11.9,4.66392857 L16.2333333,4.66392857 L16.2333333,3.95892857 L11.9,3.95892857 L11.9,1.74992857 L17.2733333,1.74992857 L19.89,7.96064286 L21.3566667,7.96064286 L23.7166667,2.56235714 L26.23,7.96735714 L27.6733333,7.96735714 L30.4566667,0.997928571 L29.2,0.987857143 Z M37.78,4.58671429 C37.19,4.28457143 36.4333333,4.15028571 35.6733333,4.04957143 L33.9333333,3.79442857 C32.8566667,3.64335714 31.8433333,3.46878571 31.8433333,2.68657143 C31.8433333,1.9245 33.2266667,1.57871429 34.32,1.57871429 C35.5533333,1.57871429 36.9,2.04871429 37.1533333,2.80742857 L38.4666667,2.59257143 C37.8433333,1.46457143 36.29,0.887142857 34.3533333,0.887142857 C32.3466667,0.887142857 30.4266667,1.46792857 30.4266667,2.80742857 C30.4266667,3.29421429 30.76,3.77092857 31.37,4.09657143 C31.98,4.43228571 32.6866667,4.54307143 33.4633333,4.65385714 L35.3866667,4.93921429 C36.3966667,5.09028571 37.36,5.37564286 37.36,6.08064286 C37.36,6.41635714 37.0933333,6.76885714 36.6533333,6.97028571 C36.1133333,7.22542857 35.27,7.31607143 34.58,7.31607143 C32.96,7.31607143 31.63,6.86957143 31.1566667,5.90607143 L29.8566667,6.07392857 C30.6333333,7.42685714 32.19,8.05464286 34.5466667,8.05464286 C35.5933333,8.05464286 36.7233333,7.93378571 37.5666667,7.55107143 C38.4066667,7.165 38.86,6.59428571 38.86,5.9665 C38.86,5.41928571 38.5033333,4.94257143 37.78,4.59007143 L37.78,4.58671429 Z" id="Shape"/>            </g>        </g>    </g></svg>