<?xml version="1.0" encoding="UTF-8"?>
<svg viewBox="0 0 196 54" version="1.1" xmlns="http://www.w3.org/2000/svg" xmlns:xlink="http://www.w3.org/1999/xlink">        <title>NoticiasWhite</title>    <desc>Created with Sketch.</desc>    <defs/>    <g id="Page-1" stroke="none" stroke-width="1" fill="none" fill-rule="evenodd">        <g id="NoticiasWhite" transform="translate(0.000000, -1.000000)">            <polygon id="Shape" points="121.89 22.19 116.88 32.24 121.89 32.24"/>            <path d="M21.82,7.4 C21.995378,7.35539695 22.1590908,7.27354055 22.3,7.16 C22.4226691,7.04789078 22.5154652,6.90697813 22.57,6.75 C22.6392269,6.5621558 22.6894774,6.36785392 22.72,6.17 L22.93,4.94 C22.9623786,4.81516763 22.9857718,4.68817586 23,4.56 C23.0046222,4.50008902 23.0046222,4.43991098 23,4.38 C22.9837741,4.24841234 22.9197049,4.1273929 22.82,4.04 C22.7054858,3.94479025 22.5672049,3.88256383 22.42,3.86 C22.2137803,3.84077687 22.0062197,3.84077687 21.8,3.86 L19.61,3.86 L19,7.48 L21.09,7.48 C21.3357751,7.4851524 21.5811741,7.45825936 21.82,7.4 Z" id="Shape"/>            <path d="M63,4.03 C62.8816249,3.93484962 62.7401631,3.87274446 62.59,3.85 C62.3771118,3.83051022 62.1628882,3.83051022 61.95,3.85 L59.88,3.85 L59.25,7.52 L61.32,7.52 C61.5690887,7.52545424 61.8178321,7.49856305 62.06,7.44 C62.2380643,7.39445141 62.4048547,7.31275819 62.55,7.2 C62.6799683,7.09022618 62.7797824,6.94910967 62.84,6.79 C62.9169505,6.59015854 62.9706373,6.38212216 63,6.17 L63.21,4.94 C63.2192505,4.81684012 63.2192505,4.69315988 63.21,4.57 C63.2158081,4.50345984 63.2158081,4.43654016 63.21,4.37 C63.1860546,4.23398206 63.1109033,4.11230865 63,4.03 Z" id="Shape"/>            <path d="M39.75,34.48 L41.49,24.48 C41.5075843,24.2737074 41.5075843,24.0662926 41.49,23.86 C41.5273654,23.3184202 41.3515154,22.7836928 41,22.37 C40.49,21.79 39.51,21.47 38,21.47 C36.8947983,21.4139771 35.7961695,21.6704393 34.83,22.21 C34.0013159,22.7271668 33.4501875,23.5906013 33.33,24.56 L31.59,34.56 C31.5530182,34.7615342 31.5296321,34.9653273 31.52,35.17 C31.52,36.87 32.71,37.59 35.1,37.59 C35.7052557,37.5949642 36.3091196,37.531223 36.9,37.4 C38.390176,37.1620366 39.5482581,35.9755103 39.75,34.48 Z" id="Shape"/>            <path d="M16.81,16.12 C14.3297189,16.1885935 11.9604714,17.1633289 10.15,18.86 L10.48,16.86 L4.48,16.86 L0,42.17 L6,42.17 L9,25.78 C9.45,23.21 12,21.46 14.75,21.46 C15.7476835,21.3358445 16.7478872,21.6704715 17.47,22.37 C17.8337456,22.7856539 18.0172317,23.3289167 17.98,23.88 C17.9978294,24.0862821 17.9978294,24.2937179 17.98,24.5 L14.77,42.17 L20.84,42.17 L24.03,24.17 C24.1044251,23.6936335 24.1412056,23.2121439 24.14,22.73 C24.14,18.64 21,16.16 16.81,16.12 Z" id="Shape" fill="#001029" fill-rule="nonzero"/>            <polygon id="Shape" fill="#001029" fill-rule="nonzero" points="68.99 22.27 68.99 22.26 69.01 22.26 69.98 16.88 50.58 16.88 50.58 16.88 50.57 16.88 49.59 22.27 56.28 22.27 52.77 42.17 52.78 42.17 52.78 42.17 58.82 42.17 62.33 22.27"/>            <path d="M38.86,16.12 C36.5216277,16.0556168 34.2043957,16.5781973 32.12,17.64 C29.6084065,18.9480253 27.8488867,21.350731 27.36,24.14 L25.44,34.84 C25.3554459,35.3157696 25.3053159,35.7970181 25.29,36.28 C25.29,40.44 28.58,42.93 34.18,42.93 C35.0568457,42.9319833 35.9326149,42.8684733 36.8,42.74 C42.47,41.89 45.12,38.29 45.71,34.91 L47.62,24.21 C47.6944251,23.7336335 47.7312056,23.2521439 47.73,22.77 C47.75,18.61 44.42,16.12 38.86,16.12 Z M35.1,37.56 C32.71,37.56 31.52,36.84 31.52,35.14 C31.5296321,34.9353273 31.5530182,34.7315342 31.59,34.53 L33.32,24.53 C33.4327162,23.5605805 33.9764064,22.693615 34.8,22.17 C35.779021,21.6387855 36.8886025,21.3960646 38,21.47 C39.55,21.47 40.53,21.79 41,22.37 C41.3662864,22.788159 41.5499468,23.3355391 41.51,23.89 C41.5275843,24.0962926 41.5275843,24.3037074 41.51,24.51 L39.77,34.51 C39.5682581,36.0055103 38.410176,37.1920366 36.92,37.43 C36.3202766,37.5426021 35.7096392,37.586219 35.1,37.56 Z" id="Shape" fill="#001029" fill-rule="nonzero"/>            <polygon id="Shape" fill="#001029" fill-rule="nonzero" points="72.83 16.88 72.82 16.88 68.34 42.17 68.35 42.17 68.35 42.17 74.39 42.17 78.83 16.88 72.83 16.88"/>            <path d="M98.3,16.8799854 L91.07,16.88 C90.3171217,16.8789693 89.5651565,16.9324424 88.82,17.04 C83.94,17.75 81.66,20.76 81.16,23.61 C81.16,23.9 79.39,33.83 79.1,35.46 C78.52,38.71 80.18,42.18 86.61,42.18 L93.85,42.18 L94.79,36.8 L88,36.8 C84.86,36.8 84.86,35.39 85.11,33.87 L86.66,25.2 C86.6861733,23.6430322 87.9333947,22.3825893 89.49,22.34 C89.8383432,22.2974145 90.1890732,22.2773728 90.54,22.28 L97.38,22.28 L98.3,16.8799854 Z" id="Shape" fill="#001029" fill-rule="nonzero"/>            <polygon id="Shape" fill="#001029" fill-rule="nonzero" points="102.12 16.88 102.12 16.88 102.1 16.88 97.62 42.17 97.64 42.17 97.64 42.17 103.67 42.17 108.11 16.88"/>            <path d="M118,16.88 L106,42.17 L112.17,42.17 L114.86,36.56 L121.86,36.56 L121.86,42.2 L128.02,42.2 L128.02,16.88 L118,16.88 Z M116.92,32.23 L121.92,22.23 L121.92,32.23 L116.92,32.23 Z" id="Shape" fill="#001029" fill-rule="nonzero"/>            <path d="M139.33,17.3 C135.96,18.15 134.13,20.3 133.43,24.04 L133.22,25.19 C133.112118,25.7640436 133.051912,26.3460285 133.04,26.93 C133.04,30.43 135.38,31.99 140.63,31.99 L141,31.99 C143.09,31.99 143.78,32.57 143.78,33.72 C143.78,34.87 143.59,36.38 141.44,36.72 C141.108797,36.7674781 140.774587,36.7908728 140.44,36.79 L131.49,36.79 L130.55,42.17 L139.55,42.17 C145.55,42.17 148.44,39.96 149.34,35.02 L149.55,33.82 C149.658092,33.2257864 149.718285,32.6238513 149.73,32.02 C149.73,28.55 147.38,27.02 142.14,27.02 L141.78,27.02 C139.78,27.02 139,26.44 139,25.32 C139,23.68 139.36,22.56 141.4,22.32 C141.731962,22.2824699 142.06595,22.2657705 142.4,22.27 L150.95,22.27 L151.89,16.89 L143.29,16.89 C141.958044,16.8604297 140.627644,16.9981731 139.33,17.3 Z" id="Shape" fill="#001029" fill-rule="nonzero"/>            <path d="M11,13.92 C11.5387386,13.7909163 12.0478617,13.5601138 12.5,13.24 C12.9151097,12.9321442 13.2566663,12.5359386 13.5,12.08 C13.7774806,11.5580229 13.9667016,10.9937388 14.06,10.41 L14.16,9.8 C14.2173717,9.49326135 14.2474891,9.18204776 14.25,8.87 C14.2536162,8.62813946 14.2301366,8.38663458 14.18,8.15 C14.1017695,7.72031404 13.8921294,7.32549182 13.58,7.02 C13.2304317,6.70091442 12.8025954,6.48009567 12.34,6.38 C11.7205913,6.23604499 11.0858194,6.16887337 10.45,6.18 L10.15,6.18 C9.89435878,6.18427573 9.63914783,6.15741142 9.39,6.1 C9.24680997,6.06299307 9.11361106,5.99468594 9,5.9 C8.90178848,5.81001869 8.83516657,5.69080055 8.81,5.56 C8.78273198,5.39109345 8.78273198,5.21890655 8.81,5.05 C8.85883606,4.86197501 8.92236475,4.67807618 9,4.5 C9.0477183,4.35319167 9.13407223,4.22193369 9.25,4.12 C9.38924387,4.00389047 9.55356606,3.92172938 9.73,3.88 C9.999245,3.82123515 10.2744739,3.79438355 10.55,3.8 L14.89,3.8 L15.37,1 L11,1 C10.3268592,0.991558881 9.65521074,1.06544021 9,1.22 C8.46611432,1.3439429 7.96053654,1.56789011 7.51,1.88 C7.09624415,2.18113238 6.75466019,2.57053809 6.51,3.02 C6.234283,3.53209319 6.04506832,4.08622189 5.95,4.66 L5.85,5.25 C5.79419205,5.55695809 5.76408767,5.86803672 5.76,6.18 C5.75805014,6.41469683 5.77813828,6.64905845 5.82,6.88 C5.89669926,7.30806469 6.10258881,7.70239552 6.41,8.01 C6.7601125,8.32830306 7.18772724,8.54900744 7.65,8.65 C8.272762,8.79417097 8.91086842,8.86134006 9.55,8.85 L9.84,8.85 C10.1241133,8.84085542 10.4078213,8.87800766 10.68,8.96 C10.8503352,9.00888871 11.0008453,9.11039551 11.11,9.25 C11.1961066,9.38374595 11.2380778,9.5411382 11.23,9.7 C11.2222859,9.89440766 11.2022457,10.0881301 11.17,10.28 C11.1457141,10.4252003 11.1019879,10.5664694 11.04,10.7 C10.9794474,10.8338844 10.8866874,10.9506932 10.77,11.04 C10.6258037,11.1460302 10.4629838,11.2240481 10.29,11.27 C10.0387243,11.3354314 9.7795921,11.3657196 9.52,11.36 L5,11.36 L4.53,14.1600204 L9,14.16 C9.67393798,14.1614942 10.3455494,14.0809009 11,13.92 Z" id="Shape" fill="#001029" fill-rule="nonzero"/>            <path d="M17.84,14.14 L18.5,10.28 L20.59,10.28 C21.8180024,10.348078 23.0360794,10.0260576 24.07,9.36 C24.9463381,8.67243422 25.5144807,7.66559922 25.65,6.56 L25.94,4.86 C25.9987009,4.52987498 26.0288125,4.19530123 26.03,3.86 C26.0590578,3.58996409 26.0489535,3.31714661 26,3.05 C25.9004351,2.60267606 25.6748812,2.193209 25.35,1.87 C25.0038546,1.54750117 24.5801034,1.32012252 24.12,1.21 C23.5411794,1.06680369 22.9461793,0.999572039 22.35,1.01 L17.09,1.01 L14.84,14.14 L17.84,14.14 Z M19.61,3.81 L21.75,3.81 C21.9562197,3.79077687 22.1637803,3.79077687 22.37,3.81 C22.5172049,3.83256383 22.6554858,3.89479025 22.77,3.99 C22.8697049,4.0773929 22.9337741,4.19841234 22.95,4.33 C22.9743555,4.40479106 22.9911069,4.48184754 23,4.56 C23.0094012,4.68983003 23.0094012,4.82016997 23,4.95 L22.79,6.18 C22.7594774,6.37785392 22.7092269,6.5721558 22.64,6.76 C22.5854652,6.91697813 22.4926691,7.05789078 22.37,7.17 C22.2290908,7.28354055 22.065378,7.36539695 21.89,7.41 C21.6479311,7.46912945 21.399113,7.49602871 21.15,7.49 L19,7.49 L19.61,3.81 Z" id="Shape" fill="#001029" fill-rule="nonzero"/>            <polygon id="Shape" fill="#001029" fill-rule="nonzero" points="35.71 3.8 36.2 1 27.78 1 25.54 14.14 33.96 14.14 34.44 11.34 29.04 11.34 29.48 8.73 34.46 8.73 34.94 5.93 29.95 5.93 30.31 3.8"/>            <path d="M39.79,5.32 C39.8247202,5.12726338 39.8714784,4.93689068 39.93,4.75 C39.9881018,4.56444439 40.0911564,4.39612185 40.23,4.26 C40.3911581,4.10412217 40.5862687,3.98774037 40.8,3.92 C41.1245273,3.82557921 41.4623471,3.78504083 41.8,3.8 L45.24,3.8 L45.72,1 L41.92,1 C41.204431,0.987007297 40.4915931,1.09173704 39.81,1.31 C39.2684145,1.48762165 38.7635654,1.76206977 38.32,2.12 C37.9399972,2.42918311 37.6240769,2.80964625 37.39,3.24 C37.1727486,3.63192274 37.0239476,4.05803464 36.95,4.5 L35.89,10.66 C35.8553042,10.8580869 35.8385696,11.0589026 35.84,11.26 C35.8458869,11.4815021 35.8692933,11.7021909 35.91,11.92 C35.9909259,12.3354483 36.1807278,12.7219539 36.46,13.04 C36.7906949,13.40527 37.2062684,13.6834638 37.67,13.85 C38.3122516,14.0741626 38.9900246,14.1792174 39.67,14.16 L43.44,14.16 L43.92,11.36 L40.47,11.36 C40.15882,11.3708838 39.847977,11.330339 39.55,11.24 C39.3671223,11.1837608 39.2063282,11.0719041 39.09,10.92 C38.9958888,10.7815635 38.9469799,10.6173693 38.95,10.45 C38.9501633,10.2655393 38.9668972,10.0814662 39,9.9 L39.79,5.32 Z" id="Shape" fill="#001029" fill-rule="nonzero"/>            <polygon id="Shape" fill="#001029" fill-rule="nonzero" points="50.76 14.14 52.52 3.81 55.85 3.81 56.33 1 46.67 1 46.2 3.81 49.52 3.81 47.75 14.14"/>            <path d="M65.92,6.5 L66.21,4.8 C66.2678863,4.46976662 66.2979917,4.1352624 66.3,3.8 C66.3036867,3.57561248 66.2869511,3.35135484 66.25,3.13 C66.1858836,2.68941062 65.9907703,2.27827907 65.69,1.95 C65.3559892,1.61335007 64.9383414,1.37173562 64.48,1.25 C63.8677587,1.08279442 63.2344932,1.00532045 62.6,1.02 L57.4,1.02 L55.14,14.14 L58.14,14.14 L58.8,10.28 L60.7,10.28 L62.17,14.14 L65.41,14.14 L63.69,9.77 C64.9489716,9.13917321 65.7924108,7.9023812 65.92,6.5 Z M63.21,4.94 L63,6.17 C62.9677297,6.36853559 62.9140846,6.56299938 62.84,6.75 C62.7797824,6.90910967 62.6799683,7.05022618 62.55,7.16 C62.4048547,7.27275819 62.2380643,7.35445141 62.06,7.4 C61.8178321,7.45856305 61.5690887,7.48545424 61.32,7.48 L59.25,7.48 L59.88,3.81 L62,3.81 C62.2128882,3.79051022 62.4271118,3.79051022 62.64,3.81 C62.7901631,3.83274446 62.9316249,3.89484962 63.05,3.99 C63.1497049,4.0773929 63.2137741,4.19841234 63.23,4.33 C63.2358081,4.39654016 63.2358081,4.46345984 63.23,4.53 C63.2347208,4.66698486 63.2280311,4.80412499 63.21,4.94 Z" id="Shape" fill="#001029" fill-rule="nonzero"/>            <path d="M67.71,13.43 C68.1340928,13.8076079 68.6358997,14.0875274 69.18,14.25 C69.8437483,14.4542407 70.5356447,14.5521187 71.23,14.54 C72.0445198,14.5553176 72.8558212,14.4336224 73.63,14.18 C74.2622887,13.972508 74.8542313,13.6579328 75.38,13.25 C75.8304428,12.893534 76.2102972,12.4560232 76.5,11.96 C76.7527475,11.5071999 76.9221034,11.0126806 77,10.5 L78.63,1 L75.63,1 L74.06,10.18 C73.9848665,10.6657896 73.6995236,11.0938039 73.28,11.35 C73.0576509,11.4857429 72.8143609,11.5837346 72.56,11.64 C72.2673831,11.7015974 71.9690247,11.7317685 71.67,11.73 C71.3879243,11.7339496 71.1062591,11.7071243 70.83,11.65 C70.6104045,11.6024705 70.4028296,11.5105931 70.22,11.38 C70.0605963,11.2644622 69.9388426,11.104443 69.87,10.92 C69.8352962,10.7995052 69.8151527,10.6752868 69.81,10.55 C69.802848,10.4501279 69.802848,10.3498721 69.81,10.25 L71.39,1 L68.39,1 L66.79,10.36 C66.7503505,10.6382491 66.7303011,10.9189403 66.73,11.2 C66.7208767,11.5380752 66.7647411,11.8754944 66.86,12.2 C67.0292572,12.6781164 67.322615,13.1026224 67.71,13.43 Z" id="Shape" fill="#001029" fill-rule="nonzero"/>            <polygon id="Shape" fill="#001029" fill-rule="nonzero" points="91.61 14.14 93.85 1 90.33 1 85.87 8.38 83.96 1 80.43 1 78.18 14.14 81.18 14.14 82.58 5.97 83.94 11.49 86.73 11.49 90 5.97 88.6 14.14"/>            <path d="M196,2.42 L157,2.42 L157,42.65 L161.7,42.65 L161.58,54.12 L175.78,54.12 L175.78,42.65 L196,42.56 L196,2.42 Z M172,26 L172,50.56 L165.59,50.56 L165.59,30.91 L163.36,30.91 L163.36,25.86 L172,25.86 L172,26 Z M175.85,20.78 L171.4,20.78 L167,11.93 L167,20.76 L163.27,20.76 L163.27,5.76 L167.7,5.76 L172.34,15.09 L172.34,5.73 L175.89,5.73 L175.85,20.78 Z M188.12,30.56 L188.12,39.34 L185.12,39.34 L185.12,30.67 C185.128256,30.5701704 185.128256,30.4698296 185.12,30.37 C185.14043,30.0996419 185.050205,29.8325759 184.87,29.63 C184.516277,29.2893202 184.027109,29.12749 183.54,29.19 C182.96159,29.1598043 182.396198,29.3687042 181.976375,29.7677259 C181.556551,30.1667476 181.319212,30.7208025 181.32,31.3 L181.32,39.3 L178.55,39.3 L178.55,26.94 L181.32,26.94 L181.32,27.94 C182.191788,27.1067321 183.335366,26.6166271 184.54,26.56 C186.6,26.56 188.12,27.79 188.12,29.81 L188.12,30.56 Z M187.12,14.85 L187.12,20.65 L183.6,20.65 L183.6,14.85 L178.67,5.66 L182.48,5.66 L185.35,11.76 L188.25,5.66 L192.06,5.66 L187.12,14.85 Z" id="Shape" fill="#001029" fill-rule="nonzero"/>        </g>    </g></svg>