<?xml version="1.0" encoding="UTF-8"?>
<svg viewBox="0 0 152 55" version="1.1" xmlns="http://www.w3.org/2000/svg" xmlns:xlink="http://www.w3.org/1999/xlink">        <title>SPECTRUM_NEWS_1_BLACK</title>    <desc>Created with Sketch.</desc>    <defs>        <polygon id="path-1" points="0.010295858 0.0015443787 28.8742189 0.0015443787 28.8742189 28.8562012 0.010295858 28.8562012"/>        <polygon id="path-3" points="0.0220358744 0.129310345 77.8543184 0.129310345 77.8543184 45 0.0220358744 45"/>    </defs>    <g id="Page-1" stroke="none" stroke-width="1" fill="none" fill-rule="evenodd">        <g id="SPECTRUM_NEWS_1_BLACK" transform="translate(0.000000, 5.000000)">            <g id="Group-3" transform="translate(0.000000, 15.000000)">                <mask id="mask-2" fill="white">                    <use xlink:href="#path-1"/>                </mask>                <g id="Clip-2"/>                <polyline id="Fill-1" fill="#0D4290" mask="url(#mask-2)" points="19.1281598 17.8899112 22.2673669 0.0015443787 28.8742189 0.0015443787 23.7954438 28.8562012 15.4918343 28.8562012 9.75189349 11.0069586 6.61268639 28.8562012 0 28.8562012 5.0820355 0.0015443787 13.3427456 0.0015443787 19.1281598 17.8899112"/>            </g>            <polyline id="Fill-4" fill="#0D4290" points="36.0959612 37.8265508 47.8240224 37.8265508 46.6849283 44 28 44 33.1878632 15 52 15 50.8621324 21.1734492 39.092194 21.1734492 38.2479923 25.8552747 49.0901498 25.8552747 47.9522822 32.0249297 37.1546301 32.0249297 36.0959612 37.8265508"/>            <polyline id="Fill-5" fill="#0D4290" points="92 15 78.6949881 44 70.6861291 44 69.975378 27.6780254 62.5095454 44 54.2932829 44 53 15 60.0501593 15 60.8002426 34.7191308 69.8918621 15 74.9402398 15 75.7759182 34.7191308 84.8684041 15 92 15"/>            <path d="M102.748451,37.5169816 C103.272966,37.3093373 103.668464,37.0323634 103.937586,36.686922 C104.205124,36.3416531 104.374095,35.9624092 104.44362,35.5472932 C104.516665,35.1359714 104.552219,34.7191308 104.552219,34.3060843 C104.552219,33.6421057 104.319356,33.1448978 103.852573,32.8137708 C103.384381,32.4831612 102.531781,32.3167354 101.288434,32.3167354 L100.863366,32.3167354 C97.7850967,32.3167354 95.5332028,31.8550546 94.1069799,30.9282439 C92.6797009,30.0052274 91.9672055,28.534989 91.9672055,26.5170113 C91.9691416,26.2131333 91.9862148,25.9033916 92.0300417,25.5848543 C92.0714044,25.268559 92.1196316,24.9141496 92.1791236,24.5297319 L92.4329325,23.2040166 C92.9704723,20.3578765 94.1472866,18.2807443 95.9702399,16.9681362 C97.7924892,15.6582874 100.441466,15 103.913825,15 L114,15 L112.898519,21.1734492 L102.899117,21.1734492 C102.050565,21.1734492 101.366055,21.255886 100.8433,21.4223118 C100.319841,21.587013 99.9176547,21.8246656 99.6362119,22.1252669 C99.3531851,22.4312144 99.1627404,22.8032149 99.0639979,23.245235 C98.9656073,23.6869101 98.915268,24.1718732 98.915268,24.6958127 C98.9143879,25.3311627 99.1627404,25.8140562 99.6564533,26.1450108 C100.151398,26.4775175 100.99203,26.6422187 102.178525,26.6422187 L102.602361,26.6422187 C105.68151,26.6422187 107.933228,27.0968285 109.360331,28.010877 C110.786026,28.9214763 111.49993,30.3703294 111.49993,32.3596784 C111.49993,32.6616593 111.479688,32.9857154 111.434805,33.3328814 C111.394851,33.6778053 111.344511,34.0429074 111.287131,34.4307744 L111.034379,35.7978805 C110.497367,38.642296 109.323721,40.7192557 107.517313,42.0339334 C105.70932,43.3436097 103.054887,44 99.5533104,44 L89,44 L90.1011293,37.8265508 L100.56925,37.8265508 C101.499472,37.8265508 102.227808,37.7227287 102.748451,37.5169816" id="Fill-6" fill="#0D4290"/>            <path d="M6,12 L6.43492558,9.43929902 L10.6021115,9.43929902 C10.8918311,9.43929902 11.1298027,9.41292652 11.3158532,9.36001027 C11.5019038,9.30726528 11.6509173,9.23773779 11.7630668,9.15159905 C11.8750433,9.06563156 11.9586362,8.96271032 12.0131533,8.84317783 C12.0678435,8.72364534 12.1062651,8.59726285 12.128072,8.46368787 C12.1607823,8.27479914 12.1784354,8.09978166 12.1813776,7.93846417 C12.1841468,7.77748919 12.1457252,7.6398042 12.066459,7.52575172 C11.9871928,7.41187048 11.8560055,7.32299174 11.6728972,7.25911549 C11.4894427,7.19523925 11.2308757,7.16304425 10.8977155,7.16304425 L10.6270336,7.16304425 C9.9376947,7.16304425 9.35237106,7.10276426 8.87140879,6.98186177 C8.38992731,6.86113054 8.00969193,6.66676181 7.73104881,6.39909808 C7.45188647,6.13143436 7.26860505,5.7875644 7.18120457,5.36731694 C7.14295604,5.17174946 7.12374524,4.95871448 7.12374524,4.72855451 C7.12374524,4.47030953 7.15143648,4.18740456 7.20595362,3.88001085 L7.29612323,3.3443409 C7.40013846,2.76774221 7.57095881,2.26803476 7.80875736,1.84521856 C8.04672897,1.4222311 8.35860159,1.07493614 8.74402908,0.802991166 C9.12962963,0.531217445 9.58913119,0.329313716 10.1223607,0.197451229 C10.6554171,0.0657599932 11.2692973,0 11.9638283,0 L16,0 L15.5571132,2.56052973 L11.5538249,2.56052973 C11.2421253,2.56052973 10.9906542,2.58484723 10.7992385,2.63331098 C10.6076497,2.68211722 10.4588093,2.75335721 10.3520249,2.8478872 C10.2452406,2.94224594 10.1687435,3.05818218 10.1223607,3.19569592 C10.0758048,3.33320965 10.0363448,3.49075964 10.0032883,3.66885962 C9.97057805,3.84678835 9.96382831,4.00313958 9.98269297,4.13791332 C10.0019038,4.2728583 10.056767,4.38468454 10.1469367,4.47373453 C10.2372793,4.56261327 10.3710627,4.63008577 10.549152,4.67598076 C10.726722,4.72187576 10.9603669,4.74482326 11.2502596,4.74482326 L11.5294219,4.74482326 C12.2127034,4.74482326 12.7950848,4.8052745 13.2765663,4.92600574 C13.7578747,5.04673697 14.1391485,5.2411057 14.42108,5.50876943 C14.7026653,5.77643315 14.8873313,6.12030311 14.9747317,6.54037932 C15.0183454,6.73611805 15.0403254,6.95480428 15.0403254,7.196438 C15.0403254,7.45314172 15.0131533,7.73501919 14.9584631,8.04155666 L14.8682935,8.60240035 C14.7642783,9.18807529 14.5920734,9.69600274 14.3513326,10.1254977 C14.1105919,10.5551639 13.7973347,10.9079389 13.4117342,11.1841651 C13.0263067,11.4602201 12.5654206,11.6653775 12.0299412,11.7991238 C11.4934233,11.9330413 10.8809277,12 10.192108,12 L6,12" id="Fill-7" fill="#0D4290"/>            <path d="M18.7022057,5.91617313 L20.5665427,5.91617313 C20.8364184,5.91617313 21.0587183,5.89117064 21.2332748,5.84099439 C21.4083338,5.79081815 21.5498888,5.71683815 21.6582746,5.61922566 C21.766828,5.52161317 21.8490806,5.39745694 21.9045299,5.24675695 C21.9601468,5.09605697 22.0038696,4.92052574 22.035531,4.71964951 L22.226002,3.59813338 C22.2471096,3.46421589 22.2579984,3.3470809 22.2579984,3.24672841 C22.2579984,3.17976967 22.2553181,3.12411342 22.2497899,3.07924593 C22.2286823,2.94549969 22.1757458,2.84086595 22.0911479,2.76551596 C22.0062149,2.69016597 21.8886154,2.63724973 21.7378469,2.60659598 C21.5867433,2.57611348 21.4001253,2.56052973 21.1776579,2.56052973 L19.2642374,2.56052973 L18.7022057,5.91617313 Z M15,12 L17.0089073,0 L21.6641378,0 C22.262354,0 22.7876986,0.0616499936 23.2403393,0.185292481 C23.6929801,0.308934968 24.0596827,0.511009947 24.3399447,0.792031167 C24.6259024,1.07270989 24.8215665,1.43233485 24.9277745,1.87056356 C24.9805435,2.08959228 25.004499,2.33122601 24.9993059,2.59529348 C24.9993059,2.8704922 24.9726701,3.16829592 24.9199011,3.48836214 L24.6578988,5.03885948 C24.4617322,6.2131206 23.9933445,7.07810426 23.2522333,7.6343242 C22.5111221,8.1907154 21.4734993,8.47139412 20.1395326,8.47704537 L18.2733529,8.47704537 L17.6836803,12 L15,12 Z" id="Fill-8" fill="#0D4290"/>            <polyline id="Fill-9" fill="#0D4290" points="25 12 27.1023737 0 35 0 34.5497176 2.56052973 29.4787176 2.56052973 29.1410498 4.50199078 33.8200102 4.50199078 33.3695518 7.06269176 28.6953423 7.06269176 28.2821875 9.43929902 33.3531875 9.43929902 32.9027291 12 25 12"/>            <path d="M35.0487847,8.81183908 L36.0145498,3.18816092 C36.0794249,2.80336221 36.2132831,2.42113225 36.416467,2.04164229 C36.6193085,1.66232358 36.9032865,1.32067986 37.2689148,1.01671114 C37.6342006,0.712571176 38.0886683,0.467169951 38.6323177,0.280164971 C39.1764807,0.0933312403 39.8187265,0 40.5597398,0 L44,0 L43.5619651,2.56052973 L40.4217734,2.56052973 C40.0592263,2.56052973 39.767203,2.59820473 39.5455324,2.67355472 C39.3238617,2.74890471 39.1490928,2.85079845 39.0222527,2.97923594 C38.8952414,3.10750218 38.804519,3.25546216 38.7504279,3.42277339 C38.6961657,3.59008463 38.6528586,3.76321836 38.6205067,3.94166084 L37.9049983,8.11039916 C37.8721328,8.28661539 37.8562136,8.45478287 37.8562136,8.61473035 C37.8562136,8.77484909 37.8979801,8.91630157 37.9820267,9.03908781 C38.0657309,9.16187405 38.2050668,9.25931529 38.3998631,9.33124028 C38.594317,9.40333652 38.8731599,9.43929902 39.2353646,9.43929902 L42.3755563,9.43929902 L41.9373502,12 L38.49709,12 C37.7569326,12 37.1482369,11.9066688 36.6708319,11.7196638 C36.1932557,11.53283 35.8252311,11.2858876 35.5664156,10.9790076 C35.307429,10.6779501 35.1403629,10.3376764 35.064875,9.95818646 C35.0272167,9.75731023 35.0054776,9.55660525 35,9.35555778 C35,9.17146404 35.0164327,8.99045281 35.0487847,8.81183908" id="Fill-10" fill="#0D4290"/>            <polyline id="Fill-11" fill="#0D4290" points="44 2.56052973 44.4262159 0 53 0 52.5737841 2.56052973 49.6214191 2.56052973 48.0504664 12 45.3820786 12 46.9526982 2.56052973 44 2.56052973"/>            <path d="M56.6803118,5.91617313 L58.5344095,5.91617313 C58.7998085,5.91617313 59.0210304,5.89117064 59.1989149,5.84099439 C59.3764635,5.79081815 59.5224329,5.71683815 59.6366553,5.61922566 C59.7505417,5.52161317 59.8380562,5.39745694 59.8988628,5.24675695 C59.9598374,5.09605697 60.0065342,4.92052574 60.0382813,4.71964951 L60.2294358,3.59813338 C60.2506005,3.46986714 60.2611829,3.3583834 60.2611829,3.26351091 C60.2611829,3.19655217 60.2558077,3.13507342 60.2450574,3.07924593 C60.2238926,2.94549969 60.169469,2.84086595 60.0819545,2.76551596 C59.9942721,2.69016597 59.8723229,2.63724973 59.7156031,2.60659598 C59.5593872,2.57611348 59.3695765,2.56052973 59.146507,2.56052973 L57.2440327,2.56052973 L56.6803118,5.91617313 Z M53,12 L55.014345,0 L59.6752893,0 C60.3433222,0 60.9068752,0.0708974926 61.3656123,0.213206228 C61.8241815,0.355514963 62.1846539,0.568892441 62.4471974,0.853338661 C62.7095728,1.13795613 62.8778829,1.49775234 62.9524633,1.93289855 C62.9842104,2.12264353 63,2.32608851 63,2.54374724 C63,2.83093346 62.9736281,3.14038217 62.9205483,3.47243589 L62.6586767,5.02584448 C62.4206575,6.47787308 61.7459056,7.47129422 60.6342533,8.00610792 L62.1744075,12 L59.2738313,12 L57.954395,8.47704537 L56.2504661,8.47704537 L55.6590294,12 L53,12 Z" id="Fill-12" fill="#0D4290"/>            <path d="M63.0575844,8.29966055 L64.5372595,0 L67.3163986,0 L65.852854,8.20755109 C65.8362031,8.30315206 65.8280511,8.39077243 65.8280511,8.47041219 C65.8334279,8.58729477 65.852854,8.69636301 65.8856354,8.79695185 C65.9513718,8.96155178 66.0583885,9.09705577 66.2063387,9.20329754 C66.3542889,9.30937305 66.5417849,9.38768272 66.7695207,9.43806027 C66.996736,9.48860409 67.2558657,9.513876 67.5462157,9.513876 C67.8424629,9.513876 68.1175497,9.48660894 68.3725166,9.43207482 C68.6274834,9.3775407 68.8507096,9.29307932 69.0423683,9.17869068 C69.2345475,9.06430204 69.3922107,8.92114998 69.5153579,8.74956702 C69.6385052,8.5778178 69.72228,8.37514375 69.7661621,8.14071354 L71.2213813,0 L74,0 L72.4943078,8.42485625 C72.4172974,8.85813647 72.2516556,9.28742639 71.9970356,9.71272601 C71.7420687,10.1380256 71.3941343,10.5197645 70.953059,10.8584413 C70.5119836,11.1969519 69.973778,11.4719501 69.3380952,11.6831036 C68.7024125,11.894257 67.9624882,12 67.1188426,12 C66.4037212,12 65.7704667,11.9148736 65.2189057,11.744787 C64.6676916,11.5747004 64.2144749,11.3329546 63.8596026,11.0193834 C63.5102807,10.7061448 63.2645065,10.3280637 63.1226269,9.88514028 C63.0405866,9.6257707 63,9.34495324 63,9.04218912 C63,8.80410114 63.0190792,8.5565362 63.0575844,8.29966055" id="Fill-13" fill="#0D4290"/>            <g id="Group-17" transform="translate(74.000000, 0.000000)">                <mask id="mask-4" fill="white">                    <use xlink:href="#path-3"/>                </mask>                <g id="Clip-15"/>                <polyline id="Fill-14" fill="#0D4290" mask="url(#mask-4)" points="0.0220358744 12.3912069 2.11649327 0.309655172 5.41033184 0.309655172 7.20065919 7.09189655 11.3538969 0.309655172 14.6423139 0.309655172 12.5478565 12.3912069 9.7456278 12.3912069 11.0473184 4.88448276 7.99657399 9.95637931 5.40176233 9.95637931 4.12508072 4.88448276 2.82356502 12.3912069 0.0220358744 12.3912069"/>                <path d="M65.1126861,38.6317241 L55.2042377,38.6317241 L55.2042377,14.6682759 L50.8535516,15.7301724 L50.8729641,9.21224138 L57.487574,5.96189655 L65.1126861,5.96189655 L65.1126861,38.6317241 Z M47.686157,0.129310345 L39.1986726,45 L70.4516637,44.7468966 L77.8544933,0.337758621 L47.686157,0.129310345 Z" id="Fill-16" fill="#0D4290" mask="url(#mask-4)"/>            </g>        </g>    </g></svg>