<svg xmlns="http://www.w3.org/2000/svg" viewBox="0 0 258.18 75.537">
  <g id="g" transform="translate(-934.797 -852.589)">
    <g id="layer1" transform="translate(1097.107 691.874)">
      <g id="g1116" transform="translate(19.097 160.715)">
        <path id="rect98" d="M-2.56-2.359H61.363l-5.9,52.528a7.2,7.2,0,0,1-6.933,6.338l-63.94-.019L-9.493,3.979A7.2,7.2,0,0,1-2.56-2.359Z" transform="translate(15.41 2.359)" fill="#880819" fill-rule="evenodd"/>
        <path id="rect98-0" d="M59.192,12.807h-64.7L-12.2,65.335a5.4,5.4,0,0,0,5.414,6.338l59.327-.019Z" transform="translate(15.723 3.864)" fill="#0b0b74" fill-rule="evenodd"/>
        <path id="path148" d="M-.511,62.124a7.654,7.654,0,0,1-2.215.336c-2.328,0-3.538-1.3-3.285-3.355a3.8,3.8,0,0,1,4.1-3.4,5.844,5.844,0,0,1,2.144.381l.757-1.845A7.073,7.073,0,0,0-1.8,53.781c-3.492,0-6.539,1.952-6.971,5.46C-9.127,62.17-7.347,64.4-3.358,64.4a8.655,8.655,0,0,0,3.018-.458Z" transform="translate(16.065 7.931)" fill="#fff"/>
        <path id="path150" d="M7.514,59.566c.216-1.754-.495-3.218-3.285-3.218A8.185,8.185,0,0,0,.9,57l.3,1.495a5.6,5.6,0,0,1,2.38-.564c1.284,0,1.454.564,1.405.961L4.964,59C2,58.987-.062,59.917-.3,61.854c-.146,1.19.729,2.288,2.424,2.288a3.588,3.588,0,0,0,2.509-.915h.051l.062.747H7.092a10.283,10.283,0,0,1,.1-1.815ZM4.772,61.259a1.594,1.594,0,0,1-.1.4,1.644,1.644,0,0,1-1.457.854c-.582,0-.991-.29-.918-.885.111-.9,1.208-1.19,2.575-1.174Z" transform="translate(16.908 8.186)" fill="#fff"/>
        <path id="path152" d="M7.452,63.974h2.6l.465-3.782a2.589,2.589,0,0,1,.115-.519A1.911,1.911,0,0,1,12.559,58.5a2.8,2.8,0,0,1,.692.076l.27-2.2a2.941,2.941,0,0,0-.544-.031,2.842,2.842,0,0,0-2.449,1.54H10.46l.083-1.373H8.3c-.044.641-.1,1.357-.233,2.455Z" transform="translate(17.679 8.186)" fill="#fff"/>
        <path id="path154" d="M18.193,56.348c-2.688,0-4.657,1.54-4.953,3.95s1.411,3.843,3.859,3.843A4.626,4.626,0,0,0,22,60.161c.276-2.242-1.243-3.813-3.811-3.813ZM17.922,58c1.181,0,1.522,1.129,1.385,2.242-.165,1.342-.926,2.242-1.936,2.242-1.113,0-1.594-.961-1.436-2.242C16.07,59.139,16.672,58,17.922,58Z" transform="translate(18.251 8.186)" fill="#fff"/>
        <path id="path156" d="M21.754,64.263h2.6l1.331-10.829h-2.6Z" transform="translate(19.099 7.897)" fill="#fff"/>
        <path id="path158" d="M27.945,64.252l.917-7.458h-2.6l-.917,7.458Zm.015-10.707a1.4,1.4,0,0,0-1.514,1.174c-.1.641.388,1.159,1.21,1.159A1.447,1.447,0,0,0,29.2,54.72C29.267,54.049,28.8,53.546,27.959,53.546Z" transform="translate(19.455 7.908)" fill="#fff"/>
        <path id="path160" d="M28.871,63.974h2.6l.529-4.3a1.617,1.617,0,0,1,.174-.58,1.6,1.6,0,0,1,1.425-.869c.942,0,1.238.656,1.119,1.617l-.508,4.133h2.6l.544-4.423c.27-2.2-.89-3.2-2.6-3.2a3.625,3.625,0,0,0-2.731,1.19h-.051l.006-1.022h-2.26c-.046.656-.11,1.449-.224,2.379Z" transform="translate(19.806 8.186)" fill="#fff"/>
        <path id="path162" d="M45.059,59.566c.216-1.754-.495-3.218-3.285-3.218A8.185,8.185,0,0,0,38.44,57l.3,1.495a5.6,5.6,0,0,1,2.38-.564c1.284,0,1.454.564,1.405.961L42.509,59c-2.96-.015-5.025.915-5.263,2.852-.146,1.19.729,2.288,2.424,2.288a3.588,3.588,0,0,0,2.509-.915h.051l.062.747h2.345a10.284,10.284,0,0,1,.1-1.815Zm-2.742,1.693a1.594,1.594,0,0,1-.1.4,1.644,1.644,0,0,1-1.457.854c-.582,0-.991-.29-.918-.885.111-.9,1.208-1.19,2.575-1.174Z" transform="translate(20.635 8.186)" fill="#fff"/>
        <path id="rect98-3" d="M-6.43,12.807h65.5L55.022,48.664A7.2,7.2,0,0,1,48.089,55l-59.059-.019Z" transform="translate(15.851 3.864)" fill="#3975bb" fill-rule="evenodd"/>
        <path id="path1058" d="M8.278,12.116h-4l-6.065-8.19-.766,8.19h-3.8L-5.241.183H-.28L4.95,7.019,5.589.183h3.8Z" transform="translate(16.309 2.611)" fill="#fff"/>
        <path id="path1060" d="M18.527,12.055H7.832L8.858.948H19.553l-.2,2.148h-6.9l-.177,1.917h6.4l-.2,2.148h-6.4l-.254,2.745h6.9Z" transform="translate(17.717 2.687)" fill="#fff"/>
        <path id="path1062" d="M40.85.948,35.842,12.055h-4.22L29.638,4.82l-3.25,7.235h-4.22L19.212.948h3.982l1.568,7.646L28.189.948h3.8l1.886,7.646L36.967.948Z" transform="translate(18.847 2.687)" fill="#fff"/>
        <path id="path1064" d="M51.07,8.582a3.423,3.423,0,0,1-2.1,2.67,11.006,11.006,0,0,1-5.119,1.022,18.517,18.517,0,0,1-3.185-.239,19.842,19.842,0,0,1-2.495-.619l.246-2.663h.417a9.076,9.076,0,0,0,2.541,1.089,10.847,10.847,0,0,0,2.785.38q.348,0,.918-.045a4.919,4.919,0,0,0,.937-.149,2.7,2.7,0,0,0,.746-.336.757.757,0,0,0,.343-.6.667.667,0,0,0-.359-.627,3,3,0,0,0-1.164-.41q-.82-.149-1.742-.276a17.16,17.16,0,0,1-1.707-.336,5.411,5.411,0,0,1-2.577-1.231,2.371,2.371,0,0,1-.635-1.939A3.252,3.252,0,0,1,41,1.75,10.71,10.71,0,0,1,45.854.765a18.7,18.7,0,0,1,2.86.216,15.786,15.786,0,0,1,2.424.53L50.9,4.07h-.407a7.971,7.971,0,0,0-2.112-.9,9.293,9.293,0,0,0-2.608-.365,8.881,8.881,0,0,0-.958.052,4.789,4.789,0,0,0-.92.179,2.024,2.024,0,0,0-.7.343.728.728,0,0,0-.326.515.666.666,0,0,0,.384.679A5.883,5.883,0,0,0,44.907,5q.8.127,1.536.246t1.588.328a5.236,5.236,0,0,1,2.4,1.141,2.167,2.167,0,0,1,.642,1.865Z" transform="translate(20.728 2.669)" fill="#fff"/>
        <path id="rect173" d="M3.938,15.549A10.524,10.524,0,0,1-.429,19.671,15.062,15.062,0,0,1-7.561,21.39l-.788,6.437h7.123L-3.845,51.848H11.344l.8-7.3,21.032,0-.853,7.3H47.508l.8-7.3H55.3l.993-8.32-7.076-.006,2.253-20.666H34.185L13.107,35.677,15.3,15.549ZM35.314,26.21,34.147,36.2l-9.865-.009Z" transform="translate(16.111 4.136)" fill="#fff" fill-rule="evenodd"/>
      </g>
    </g>
    <g id="g973" transform="translate(934.797 856)">
      <path id="Shape-3" d="M10.546,60.343H0L8.106,14.765H21.258l9.225,28.255,5-28.255H46.026L37.921,60.343H24.7L15.543,32.155Z" transform="translate(0 8.339)" fill="#0d4290"/>
      <path id="path3" d="M58.821,50.632,57.05,60.337H27.886l8.089-45.562H65.339l-1.772,9.689H45.184l-1.3,7.37H60.793l-1.772,9.689H42.175l-1.655,9.109Z" transform="translate(15.75 8.345)" fill="#0d4290"/>
      <path id="path5" d="M94.491,60.337H81.856l-1.12-25.654L68.954,60.337H55.985L53.946,14.775H65.076l1.17,30.971L80.6,14.775h7.972l1.32,30.971,14.339-30.971H115.5Z" transform="translate(30.469 8.345)" fill="#0d4290"/>
      <path id="path7" d="M112.33,14.807h15.676l-1.671,9.705H110.793a10.687,10.687,0,0,0-3.192.4,4.236,4.236,0,0,0-1.872,1.11,3.8,3.8,0,0,0-.886,1.756,10.819,10.819,0,0,0-.234,2.269,2.576,2.576,0,0,0,1.153,2.286,7.276,7.276,0,0,0,3.911.778h.652q7.153,0,10.5,2.153a7.545,7.545,0,0,1,3.342,6.84,12.311,12.311,0,0,1-.1,1.524c-.067.48-.15,1.043-.234,1.656l-.384,2.153a14.953,14.953,0,0,1-5.432,9.838q-4.228,3.081-12.384,3.081H89.233L90.9,50.647h16.261a9.4,9.4,0,0,0,3.343-.48,4.328,4.328,0,0,0,1.855-1.308,3.99,3.99,0,0,0,.785-1.789,11.286,11.286,0,0,0,.167-1.954,2.706,2.706,0,0,0-1.086-2.352,7.326,7.326,0,0,0-3.978-.778h-.669q-7.153,0-10.5-2.186a7.66,7.66,0,0,1-3.342-6.923,10.2,10.2,0,0,1,.1-1.474c.067-.5.15-1.06.234-1.656l.4-2.087a14.874,14.874,0,0,1,5.549-9.8q4.245-3.1,12.3-3.047Z" transform="translate(50.4 8.363)" fill="#0d4290"/>
      <path id="path9" d="M12.324,18.974H5.639l.685-4.058h6.668a4.315,4.315,0,0,0,1.12-.132,2.148,2.148,0,0,0,.7-.331,1.261,1.261,0,0,0,.384-.48,2.451,2.451,0,0,0,.184-.6,5.648,5.648,0,0,0,0-.828A1.053,1.053,0,0,0,15.2,11.9a1.22,1.22,0,0,0-.618-.431,3.978,3.978,0,0,0-1.22-.149h-.435a11.381,11.381,0,0,1-2.774-.282,3.94,3.94,0,0,1-1.8-.927,3.055,3.055,0,0,1-.869-1.656,5.023,5.023,0,0,1-.084-1.01,7.669,7.669,0,0,1,.134-1.342l.134-.795a7.555,7.555,0,0,1,.8-2.368A4.984,4.984,0,0,1,9.951,1.286,6.5,6.5,0,0,1,12.124.326,12.205,12.205,0,0,1,15.032.011h6.334L20.714,4H14.38a5.057,5.057,0,0,0-1.187.116,1.678,1.678,0,0,0-.7.331,1.258,1.258,0,0,0-.384.58,5.1,5.1,0,0,0-.184.745,2.216,2.216,0,0,0,0,.745.924.924,0,0,0,.251.53,1.493,1.493,0,0,0,.635.315,4.838,4.838,0,0,0,1.1.116h.435a11.582,11.582,0,0,1,2.758.282,3.989,3.989,0,0,1,1.755.927,3.005,3.005,0,0,1,.869,1.656,4.926,4.926,0,0,1,.1,1.043,8.206,8.206,0,0,1-.134,1.342v.911a7.592,7.592,0,0,1-.886,2.4A5.1,5.1,0,0,1,17.321,17.7a6.328,6.328,0,0,1-2.189.994,12.02,12.02,0,0,1-2.808.282Z" transform="translate(3.185 0.006)" fill="#0d4290"/>
      <path id="path11" d="M31.4,5.585l-.435,2.451a6.114,6.114,0,0,1-2.29,4.107,8.6,8.6,0,0,1-5.014,1.325H20.621l-.969,5.581H15.273l3.343-19h7.621a10.115,10.115,0,0,1,2.574.3,3.955,3.955,0,0,1,1.788.961,3.421,3.421,0,0,1,.953,1.656,4.531,4.531,0,0,1,.117,1.143A8.412,8.412,0,0,1,31.4,5.585ZM27.139,5.7a3.988,3.988,0,0,0,.05-.58,2.079,2.079,0,0,0,0-.265.776.776,0,0,0-.251-.5,1.243,1.243,0,0,0-.585-.248,4.723,4.723,0,0,0-.919,0H22.309L21.39,9.427h3.025A3.894,3.894,0,0,0,25.5,9.311a1.677,1.677,0,0,0,.7-.348,1.506,1.506,0,0,0,.4-.6,3.864,3.864,0,0,0,.217-.828l.318-1.772Z" transform="translate(8.626 0.03)" fill="#0d4290"/>
      <path id="path13" d="M37.617,19.007H25.334l3.259-19H40.876l-.7,4.058H32.3l-.535,3.064h7.27l-.7,4.058H31.083l-.652,3.76h7.888Z" transform="translate(14.309 0.006)" fill="#0d4290"/>
      <path id="path15" d="M43.847.033h5.465l-.7,4.058H43.6a4.4,4.4,0,0,0-1.4.182,1.976,1.976,0,0,0-.836.48,1.654,1.654,0,0,0-.435.7,5.984,5.984,0,0,0-.217.812l-1.136,6.625a4.15,4.15,0,0,0,0,.795,1.168,1.168,0,0,0,.2.662,1.3,1.3,0,0,0,.669.464,3.978,3.978,0,0,0,1.337.182h5.014l-.7,4.058h-5.5a8.19,8.19,0,0,1-2.925-.447,4.3,4.3,0,0,1-1.755-1.176,3.482,3.482,0,0,1-.8-1.656,5.665,5.665,0,0,1-.1-.961,4.924,4.924,0,0,1,0-.861l1.538-8.894a5.765,5.765,0,0,1,.685-1.772A5.476,5.476,0,0,1,38.6,1.623,6.922,6.922,0,0,1,40.772.463,9.573,9.573,0,0,1,43.847.033Z" transform="translate(19.761 0.017)" fill="#0d4290"/>
      <path id="path17" d="M46.959,19.007,49.533,4.068H44.686l.7-4.058H59.46l-.7,4.058H53.911L51.338,19.007Z" transform="translate(25.239 0.006)" fill="#0d4290"/>
      <path id="path19" d="M65.521,12.707l2.524,6.277h-4.73L61.159,13.4H58.385l-.969,5.581H53.07L56.413.054h7.621a9.692,9.692,0,0,1,2.758.331A4.019,4.019,0,0,1,68.546,1.4a3.3,3.3,0,0,1,.819,1.656,5.923,5.923,0,0,1,0,.961,8.6,8.6,0,0,1-.134,1.474l-.418,2.468a5.88,5.88,0,0,1-3.292,4.753ZM64.9,5.122a1.438,1.438,0,0,0,0-.3.793.793,0,0,0-.267-.5,1.31,1.31,0,0,0-.6-.248,5.055,5.055,0,0,0-.936,0H60.006l-.919,5.316h3.008a3.917,3.917,0,0,0,1.053-.149,1.845,1.845,0,0,0,.719-.348,1.508,1.508,0,0,0,.435-.6,3.849,3.849,0,0,0,.234-.828L64.852,5.7a3.549,3.549,0,0,0,.05-.58Z" transform="translate(29.975 0.029)" fill="#0d4290"/>
      <path id="path21" d="M76.994,0h4.362L78.983,13.73a6.39,6.39,0,0,1-.785,2.1A6.644,6.644,0,0,1,76.526,17.7a8.648,8.648,0,0,1-2.557,1.375,10.836,10.836,0,0,1-3.493.513,9.843,9.843,0,0,1-3.008-.414A5.73,5.73,0,0,1,65.329,18a4.218,4.218,0,0,1-1.17-1.855,4.713,4.713,0,0,1-.184-1.375,8.005,8.005,0,0,1,.084-1.209L66.4.033H70.76L68.454,13.415a3,3,0,0,0,0,.431,1.967,1.967,0,0,0,.084.53,1.442,1.442,0,0,0,.5.662,2.283,2.283,0,0,0,.886.381,5.344,5.344,0,0,0,1.22.116,5.962,5.962,0,0,0,1.3-.132,3.36,3.36,0,0,0,1.053-.414,2.515,2.515,0,0,0,.752-.7,2.554,2.554,0,0,0,.4-.994Z" transform="translate(36.133)" fill="#0d4290"/>
      <path id="path23" d="M89.853,19.007,91.892,7.2l-4.78,7.983H83.067L81.062,7.2,79.023,19.007H74.644l3.276-19h5.164l2.791,10.666L92.376.011h5.131l-3.276,19Z" transform="translate(42.16 0.006)" fill="#0d4290"/>
    </g>
  </g>
</svg>
